<?xml version="1.0" encoding="iso-8859-1"?>
<!-- Generator: Adobe Illustrator 18.0.0, SVG Export Plug-In . SVG Version: 6.00 Build 0)  -->
<!DOCTYPE svg PUBLIC "-//W3C//DTD SVG 1.1//EN" "http://www.w3.org/Graphics/SVG/1.1/DTD/svg11.dtd">
<svg xmlns="http://www.w3.org/2000/svg" xmlns:xlink="http://www.w3.org/1999/xlink" version="1.1" id="Capa_1" x="0px" y="0px" viewBox="0 0 490.169 490.169" style="enable-background:new 0 0 490.169 490.169;" xml:space="preserve" width="512px" height="512px">
<g>
	<path d="M132.232,151.733c22.159-6.964,34.456-30.551,27.5-52.703c-5.648-17.946-22.239-29.429-40.104-29.429   c-4.164,0-8.408,0.629-12.604,1.946c-22.145,6.962-34.441,30.566-27.47,52.709c5.615,17.946,22.192,29.43,40.04,29.43   C123.776,153.686,128.036,153.056,132.232,151.733z" fill="#91DC5A"/>
	<path d="M155.118,156.857c0,0-39.791,12.752-40.384,12.966c-14.964,5.408-25.839,18.156-28.385,33.99l-14.8,91.872   c-1.807,11.265,5.859,21.868,17.107,23.676c1.113,0.186,2.227,0.266,3.325,0.266c9.957,0,18.721-7.222,20.367-17.374l3.037-18.857   l3.638,34.324l3.719,35.072c0.307,2.841,1.856,5.399,4.244,6.965c2.388,1.564,5.358,1.976,8.087,1.122l13.16-4.139l12.477,39.652   H96.855c-1.791,0-3.26-1.46-3.26-3.26v-61.247c-0.538,0.026-1.056,0.145-1.598,0.145c-1.759,0-3.519-0.145-5.31-0.428   c-12.755-2.058-22.5-11.218-26.146-22.757v84.288c0,20.021,16.284,36.313,36.312,36.313h68.35v-18.771v-59.273V196.994V155.16   c-2.677,0.195-5.353,0.648-8.015,1.348C156.503,156.689,155.802,156.642,155.118,156.857z" fill="#91DC5A"/>
	<path d="M338.463,0.107H110.122H96.855c-20.055,0-36.312,16.258-36.312,36.313v249.683l13.573-84.257   c2.199-13.704,9.258-25.661,19.479-34.165v-3.588c-13.947-6.903-24.902-19.221-29.809-34.874   c-4.696-14.921-3.292-30.777,3.922-44.649c5.792-11.112,14.868-19.724,25.887-25.188V36.419c0-1.793,1.468-3.26,3.26-3.26h13.267   h63.072h84.266l-59.832,11.966c-9.248,1.848-15.896,9.966-15.896,19.399v405.858c0,5.929,2.662,11.547,7.246,15.298   c4.584,3.762,10.604,5.27,16.412,4.101l208.34-41.663c9.25-1.848,15.897-9.966,15.897-19.399V16.003   c0-8.847-7.179-16.015-16.025-16.003L338.463,0.107z M223.433,291.731c-8.941,0-16.188-7.248-16.188-16.18   c0-8.941,7.247-16.187,16.188-16.187c8.943,0,16.188,7.246,16.188,16.187C239.621,284.483,232.377,291.731,223.433,291.731z    M350.159,124.191c0,4.688-3.31,8.722-7.925,9.635l-63.782,12.638c-2.89,0.571-5.874-0.179-8.149-2.052   c-2.259-1.864-3.583-4.647-3.583-7.592v-17.107c0-4.688,3.309-8.723,7.924-9.635l63.781-12.638c2.891-0.572,5.875,0.178,8.15,2.051   c2.259,1.864,3.584,4.647,3.584,7.592V124.191z" fill="#91DC5A"/>
</g>
<g>
</g>
<g>
</g>
<g>
</g>
<g>
</g>
<g>
</g>
<g>
</g>
<g>
</g>
<g>
</g>
<g>
</g>
<g>
</g>
<g>
</g>
<g>
</g>
<g>
</g>
<g>
</g>
<g>
</g>
</svg>
