<svg xmlns="http://www.w3.org/2000/svg" height="591pt" version="1.1" viewBox="1 -142 591.6 591" width="591pt">
<g id="surface1">
<path d="M 588.671875 159.941406 L 566.300781 65.84375 C 563.441406 51.53125 550.878906 41.222656 536.28125 41.222656 L 0 41.222656 L 0 265.777344 L 592 265.777344 L 592 188.273438 C 592 178.730469 590.886719 169.21875 588.671875 159.941406 Z M 588.671875 159.941406 " style=" stroke:none;fill-rule:nonzero;fill:rgb(26.27451%,58.039216%,80%);fill-opacity:1;" />
<path d="M 0 214.742188 L 592 214.742188 L 592 265.777344 L 0 265.777344 Z M 0 214.742188 " style=" stroke:none;fill-rule:nonzero;fill:rgb(24.313725%,53.72549%,74.117647%);fill-opacity:1;" />
<path d="M 588.671875 159.941406 L 570.15625 82.050781 L 0 82.050781 L 0 173.914062 L 591.152344 173.914062 C 590.589844 169.207031 589.765625 164.542969 588.671875 159.941406 Z M 588.671875 159.941406 " style=" stroke:none;fill-rule:nonzero;fill:rgb(41.176471%,80%,84.313725%);fill-opacity:1;" />
<path d="M 142.898438 265.777344 C 142.898438 288.324219 124.617188 306.601562 102.070312 306.601562 C 79.519531 306.601562 61.242188 288.324219 61.242188 265.777344 C 61.242188 243.226562 79.519531 224.949219 102.070312 224.949219 C 124.617188 224.949219 142.898438 243.226562 142.898438 265.777344 Z M 142.898438 265.777344 " style=" stroke:none;fill-rule:nonzero;fill:rgb(41.176471%,48.235294%,54.901961%);fill-opacity:1;" />
<path d="M 122.484375 265.777344 C 122.484375 277.050781 113.34375 286.191406 102.070312 286.191406 C 90.792969 286.191406 81.65625 277.050781 81.65625 265.777344 C 81.65625 254.5 90.792969 245.363281 102.070312 245.363281 C 113.34375 245.363281 122.484375 254.5 122.484375 265.777344 Z M 122.484375 265.777344 " style=" stroke:none;fill-rule:nonzero;fill:rgb(76.470588%,78.823529%,81.960784%);fill-opacity:1;" />
<path d="M 224.550781 265.777344 C 224.550781 288.324219 206.273438 306.601562 183.722656 306.601562 C 161.175781 306.601562 142.898438 288.324219 142.898438 265.777344 C 142.898438 243.226562 161.175781 224.949219 183.722656 224.949219 C 206.273438 224.949219 224.550781 243.226562 224.550781 265.777344 Z M 224.550781 265.777344 " style=" stroke:none;fill-rule:nonzero;fill:rgb(41.176471%,48.235294%,54.901961%);fill-opacity:1;" />
<path d="M 530.757812 265.777344 C 530.757812 288.324219 512.480469 306.601562 489.929688 306.601562 C 467.382812 306.601562 449.101562 288.324219 449.101562 265.777344 C 449.101562 243.226562 467.382812 224.949219 489.929688 224.949219 C 512.480469 224.949219 530.757812 243.226562 530.757812 265.777344 Z M 530.757812 265.777344 " style=" stroke:none;fill-rule:nonzero;fill:rgb(41.176471%,48.235294%,54.901961%);fill-opacity:1;" />
<path d="M 224.550781 41.222656 L 40.828125 41.222656 L 61.242188 0.398438 L 204.136719 0.398438 Z M 224.550781 41.222656 " style=" stroke:none;fill-rule:nonzero;fill:rgb(76.470588%,78.823529%,81.960784%);fill-opacity:1;" />
<path d="M 234.757812 204.535156 L 438.898438 204.535156 L 438.898438 224.949219 L 234.757812 224.949219 Z M 234.757812 204.535156 " style=" stroke:none;fill-rule:nonzero;fill:rgb(21.176471%,47.058824%,65.098039%);fill-opacity:1;" />
<path d="M 561.378906 204.535156 L 592 204.535156 L 592 224.949219 L 561.378906 224.949219 Z M 561.378906 204.535156 " style=" stroke:none;fill-rule:nonzero;fill:rgb(96.078431%,68.235294%,27.058824%);fill-opacity:1;" />
<path d="M 0 204.535156 L 30.621094 204.535156 L 30.621094 224.949219 L 0 224.949219 Z M 0 204.535156 " style=" stroke:none;fill-rule:nonzero;fill:rgb(94.117647%,27.843137%,16.078431%);fill-opacity:1;" />
<path d="M 204.136719 265.777344 C 204.136719 277.050781 195 286.191406 183.722656 286.191406 C 172.449219 286.191406 163.308594 277.050781 163.308594 265.777344 C 163.308594 254.5 172.449219 245.363281 183.722656 245.363281 C 195 245.363281 204.136719 254.5 204.136719 265.777344 Z M 204.136719 265.777344 " style=" stroke:none;fill-rule:nonzero;fill:rgb(76.470588%,78.823529%,81.960784%);fill-opacity:1;" />
<path d="M 510.34375 265.777344 C 510.34375 277.050781 501.207031 286.191406 489.929688 286.191406 C 478.65625 286.191406 469.515625 277.050781 469.515625 265.777344 C 469.515625 254.5 478.65625 245.363281 489.929688 245.363281 C 501.207031 245.363281 510.34375 254.5 510.34375 265.777344 Z M 510.34375 265.777344 " style=" stroke:none;fill-rule:nonzero;fill:rgb(76.470588%,78.823529%,81.960784%);fill-opacity:1;" />
<path d="M 51.035156 20.808594 L 40.828125 41.222656 L 224.550781 41.222656 L 214.34375 20.808594 Z M 51.035156 20.808594 " style=" stroke:none;fill-rule:nonzero;fill:rgb(71.764706%,74.117647%,76.862745%);fill-opacity:1;" />
<path d="M 582.292969 133.085938 L 0 133.085938 L 0 173.914062 L 591.152344 173.914062 C 590.589844 169.207031 589.765625 164.542969 588.671875 159.941406 Z M 582.292969 133.085938 " style=" stroke:none;fill-rule:nonzero;fill:rgb(38.039216%,74.117647%,78.039216%);fill-opacity:1;" />
<path d="M 316.414062 82.050781 L 336.828125 82.050781 L 336.828125 173.914062 L 316.414062 173.914062 Z M 316.414062 82.050781 " style=" stroke:none;fill-rule:nonzero;fill:rgb(31.764706%,61.568627%,65.098039%);fill-opacity:1;" />
<path d="M 398.070312 82.050781 L 418.484375 82.050781 L 418.484375 173.914062 L 398.070312 173.914062 Z M 398.070312 82.050781 " style=" stroke:none;fill-rule:nonzero;fill:rgb(31.764706%,61.568627%,65.098039%);fill-opacity:1;" />
<path d="M 479.722656 82.050781 L 500.136719 82.050781 L 500.136719 173.914062 L 479.722656 173.914062 Z M 479.722656 82.050781 " style=" stroke:none;fill-rule:nonzero;fill:rgb(31.764706%,61.568627%,65.098039%);fill-opacity:1;" />
<path d="M 234.757812 82.050781 L 255.171875 82.050781 L 255.171875 173.914062 L 234.757812 173.914062 Z M 234.757812 82.050781 " style=" stroke:none;fill-rule:nonzero;fill:rgb(31.764706%,61.568627%,65.098039%);fill-opacity:1;" />
<path d="M 153.101562 82.050781 L 173.515625 82.050781 L 173.515625 173.914062 L 153.101562 173.914062 Z M 153.101562 82.050781 " style=" stroke:none;fill-rule:nonzero;fill:rgb(31.764706%,61.568627%,65.098039%);fill-opacity:1;" />
<path d="M 71.449219 82.050781 L 91.863281 82.050781 L 91.863281 173.914062 L 71.449219 173.914062 Z M 71.449219 82.050781 " style=" stroke:none;fill-rule:nonzero;fill:rgb(31.764706%,61.568627%,65.098039%);fill-opacity:1;" />
</g>
</svg>