<?xml version="1.0" encoding="iso-8859-1"?>
<!-- Generator: Adobe Illustrator 19.0.0, SVG Export Plug-In . SVG Version: 6.00 Build 0)  -->
<svg version="1.1" id="Capa_1" xmlns="http://www.w3.org/2000/svg" xmlns:xlink="http://www.w3.org/1999/xlink" x="0px" y="0px"
	 viewBox="0 0 513.341 513.341" style="enable-background:new 0 0 513.341 513.341;" xml:space="preserve">
<path style="fill:#66C6B9;" d="M512.671,261.608v-53.333c0-17.067-10.667-32-25.6-37.333l-59.733-22.4l-39.467,1.067l-38.4-1.067
	l-59.733,22.4c-16,5.333-25.6,20.267-25.6,37.333v53.333H512.671z"/>
<g>
	<path style="fill:#415A6B;" d="M386.804,160.274h5.333l25.6,5.333c0,0-17.067,6.4-20.267,16c-4.267-2.133-8.533-2.133-12.8,0
		c0,0-6.4-11.733-13.867-16S386.804,160.274,386.804,160.274z"/>
	<path style="fill:#415A6B;" d="M372.937,261.608h35.2c-1.067-22.4-1.067-39.467-2.133-44.8c0-13.867-9.6-36.267-9.6-36.267
		l-9.6-10.667l-2.133,10.667c0,0-10.667,27.733-10.667,41.6C375.071,226.408,374.004,241.341,372.937,261.608z"/>
</g>
<g>
	<path style="fill:#E8EAE9;" d="M422.004,130.408l-29.867,29.867c0,0,35.2,20.267,39.467,28.8c0,0,4.267-24.533,1.067-32
		C430.537,147.474,422.004,130.408,422.004,130.408z"/>
	<path style="fill:#E8EAE9;" d="M356.937,130.408l28.8,28.8c0,0-35.2,20.267-39.467,28.8c0,0-4.267-24.533-1.067-32
		C348.404,147.474,356.937,130.408,356.937,130.408z"/>
</g>
<g>
	<path style="fill:#FFD15C;" d="M434.804,89.874c0,0-2.133,37.333-16,55.467c-13.867,18.133-37.333,19.2-52.267,5.333
		s-21.333-37.333-24.533-56.533c-3.2-19.2-2.133-58.667,1.067-68.267c3.2-9.6,71.467-10.667,78.933-5.333
		S438.004,73.874,434.804,89.874z"/>
	<path style="fill:#FFD15C;" d="M332.404,89.874c2.133,8.533,5.333,14.933,8.533,14.933c3.2,0,4.267-7.467,3.2-16
		c-2.133-8.533-5.333-14.933-8.533-14.933C331.337,74.941,330.271,81.341,332.404,89.874z"/>
</g>
<path style="fill:#415A6B;" d="M429.471,82.408h2.133c0,0,0-6.4,3.2-9.6c3.2-3.2,6.4-26.667,2.133-38.4
	c-4.267-11.733-23.467-37.333-58.667-34.133s-44.8,33.067-46.933,39.467s0,30.933,4.267,37.333s6.4,17.067,6.4,17.067h2.133
	c0,0-2.133-11.733,0-21.333s7.467-20.267,5.333-27.733c-2.133-7.467,0-9.6,8.533-10.667s38.4,4.267,49.067,1.067
	c9.6-3.2,12.8,0,13.867,9.6s7.467,19.2,8.533,21.333C429.471,68.541,429.471,82.408,429.471,82.408z"/>
<g>
	<path style="fill:#FFD15C;" d="M442.271,82.408c-1.067,9.6-3.2,17.067-6.4,17.067c-3.2,0-5.333-7.467-4.267-17.067
		s3.2-17.067,6.4-17.067C441.204,65.341,443.337,72.808,442.271,82.408z"/>
	
		<ellipse transform="matrix(0.3011 -0.9536 0.9536 0.3011 -167.4393 397.1317)" style="fill:#FFD15C;" cx="187.207" cy="312.794" rx="17.067" ry="7.467"/>
	
		<ellipse transform="matrix(0.1758 0.9844 -0.9844 0.1758 380.7245 164.9936)" style="fill:#FFD15C;" cx="91.827" cy="309.867" rx="17.066" ry="7.466"/>
	<path style="fill:#FFD15C;" d="M186.271,307.474l1.067,1.067c0,0-5.333,25.6-8.533,32l-2.133,45.867l-34.133,37.333l-37.333-35.2
		v-33.067c0,0-12.8-21.333-12.8-52.267l1.067-55.467l84.267-9.6c0,0,6.4,13.867,9.6,34.133
		C188.404,291.474,186.271,307.474,186.271,307.474z"/>
</g>
<path style="fill:#415A6B;" d="M91.337,302.141h3.2c0-4.267,0-18.133,2.133-22.4c3.2-5.333,0-9.6,1.067-17.067
	c1.067-6.4,2.133-8.533,13.867-12.8c12.8-4.267,50.133,0,57.6-1.067c7.467-1.067,14.933,11.733,11.733,18.133s2.133,9.6,3.2,19.2
	c1.067,6.4,0,16,0,21.333h2.133c2.133-7.467,7.467-23.467,7.467-36.267c0-17.067-7.467-38.4-19.2-49.067
	c-11.733-10.667-43.733-11.733-64,0c-21.333,10.667-24.533,35.2-23.467,44.8C87.071,277.608,90.271,296.808,91.337,302.141z"/>
<path style="fill:#F7B64C;" d="M156.404,369.341c-6.4,4.267-21.333,6.4-29.867,3.2c-9.6-2.133-22.4-18.133-22.4-18.133v33.067
	l14.933,14.933c8.533-3.2,20.267-8.533,29.867-17.067c19.2-16,28.8-44.8,28.8-44.8C175.604,345.875,162.804,365.074,156.404,369.341
	z"/>
<path style="fill:#344A5E;" d="M278.004,512.274l-7.467-56.533c-3.2-24.533-19.2-45.867-42.667-55.467l-42.667-17.067l-45.867,25.6
	l-45.867-25.6l-42.667,17.067c-23.467,9.6-39.467,30.933-42.667,55.467l-7.467,56.533H278.004z"/>
<g>
	<path style="fill:#F3705A;" d="M159.604,408.808c0,0-13.867,16-16,21.333c-3.2-2.133-6.4-2.133-10.667,0
		c-2.133-5.333-16-21.333-16-21.333H159.604z"/>
	<path style="fill:#F3705A;" d="M155.337,512.274c-1.067-24.533-2.133-45.867-2.133-50.133c-1.067-11.733-8.533-32-8.533-32
		l1.067-7.467l-8.533-1.067l-3.2,7.467c0,0-7.467,21.333-8.533,27.733c0,2.133-2.133,27.733-3.2,55.467H155.337z"/>
</g>
<g>
	<path style="fill:#E8EAE9;" d="M176.671,364.008c0,0-2.133,7.467-6.4,14.933c-4.267,6.4-30.933,29.867-30.933,29.867
		s16,6.4,23.467,11.733c7.467,5.333,7.467,5.333,7.467,5.333s14.933-25.6,16-32c1.067-6.4,0-9.6-2.133-12.8
		C180.937,375.741,177.737,364.008,176.671,364.008z"/>
	<path style="fill:#E8EAE9;" d="M104.137,364.008c0,0-1.067,8.533,4.267,14.933c4.267,6.4,30.933,29.867,30.933,29.867
		s-16,6.4-23.467,11.733c-7.467,5.333-7.467,5.333-7.467,5.333s-14.933-25.6-16-32c-1.067-6.4,0-9.6,2.133-12.8
		C97.737,375.741,103.071,364.008,104.137,364.008z"/>
</g>
<path style="fill:#F3705A;" d="M484.937,403.474l27.733-10.667l-4.267-26.667h-29.867c-3.2-7.467-6.4-13.867-11.733-20.267
	l14.933-25.6l-21.333-18.133l-22.4,19.2c-6.4-3.2-13.867-6.4-21.333-7.467l-5.333-28.8h-27.733l-5.333,28.8
	c-7.467,1.067-14.933,4.267-21.333,7.467l-23.467-19.2l-21.333,18.133l14.933,25.6c-4.267,6.4-8.533,12.8-11.733,20.267h-29.867
	l-4.267,26.667l27.733,10.667c0,7.467,1.067,14.933,4.267,22.4l-22.4,19.2l13.867,23.467l27.733-9.6
	c5.333,5.333,10.667,10.667,17.067,14.933l-5.333,29.867l25.6,9.6l14.933-25.6c4.267,1.067,7.467,1.067,11.733,1.067
	s7.467,0,11.733-1.067l14.933,25.6l25.6-9.6l-5.333-29.867c6.4-4.267,12.8-8.533,17.067-14.933l27.733,9.6l13.867-23.467
	l-21.333-19.2C482.804,418.408,484.937,410.941,484.937,403.474z M396.404,430.141c-17.067,0-30.933-13.867-30.933-30.933
	c0-17.067,13.867-30.933,30.933-30.933c17.067,0,30.933,13.867,30.933,30.933S413.471,430.141,396.404,430.141z"/>
<path style="fill:#F05540;" d="M454.004,399.208c0-32-25.6-57.6-57.6-57.6s-57.6,25.6-57.6,57.6s25.6,57.6,57.6,57.6
	C428.404,456.808,454.004,431.208,454.004,399.208z M366.537,399.208c0-17.067,13.867-30.933,30.933-30.933
	c17.067,0,30.933,13.867,30.933,30.933c0,17.067-13.867,30.933-30.933,30.933C380.404,430.141,366.537,416.274,366.537,399.208z"/>
<path style="fill:#415A6B;" d="M179.871,113.341V92.008c-52.267,0-96,35.2-108.8,84.267c-2.133-8.533-4.267-18.133-4.267-28.8
	c1.067-62.933,51.2-113.067,113.067-113.067V13.074l61.867,50.133L179.871,113.341z"/>
<g>
</g>
<g>
</g>
<g>
</g>
<g>
</g>
<g>
</g>
<g>
</g>
<g>
</g>
<g>
</g>
<g>
</g>
<g>
</g>
<g>
</g>
<g>
</g>
<g>
</g>
<g>
</g>
<g>
</g>
</svg>
