<?xml version="1.0" encoding="iso-8859-1"?>
<!-- Generator: Adobe Illustrator 21.0.0, SVG Export Plug-In . SVG Version: 6.00 Build 0)  -->
<svg version="1.1" id="Capa_1" xmlns="http://www.w3.org/2000/svg" xmlns:xlink="http://www.w3.org/1999/xlink" x="0px" y="0px"
	 viewBox="0 0 512 512" style="enable-background:new 0 0 512 512;" xml:space="preserve">
<circle style="fill:#FF432E;" cx="256" cy="256" r="256"/>
<path style="fill:#DB0404;" d="M512,256c0-13.61-1.073-26.969-3.118-40.005l-53.167-53.167L89.252,391.608l115.2,115.2
	C221.104,510.212,238.343,512,256,512C397.385,512,512,397.385,512,256z"/>
<polygon style="fill:#4A7AFF;" points="388.887,96 228.215,96 228.215,391.608 455.715,391.608 455.715,162.828 "/>
<rect x="228.22" y="255.91" style="fill:#2864F0;" width="227.5" height="135.7"/>
<polygon style="fill:#0053BF;" points="388.887,162.828 455.715,162.828 388.887,96 "/>
<g>
	<rect x="246" y="180.5" style="fill:#BFE1FF;" width="101" height="22.5"/>
	<rect x="246" y="219.16" style="fill:#BFE1FF;" width="101" height="22.5"/>
</g>
<g>
	<rect x="246" y="257.83" style="fill:#A3D4FF;" width="101" height="22.5"/>
	<rect x="336.93" y="296.5" style="fill:#A3D4FF;" width="101" height="22.5"/>
	<rect x="336.93" y="335.16" style="fill:#A3D4FF;" width="101" height="22.5"/>
	<rect x="360.5" y="180.5" style="fill:#A3D4FF;" width="77.33" height="99.83"/>
</g>
<g>
	<rect x="360.5" y="255.91" style="fill:#87C7FF;" width="77.33" height="24.425"/>
	<rect x="246" y="296.5" style="fill:#87C7FF;" width="77.33" height="61.16"/>
</g>
<polygon style="fill:#FFFFFF;" points="249.924,96 89.253,96 89.253,391.608 316.752,391.608 316.752,162.828 "/>
<rect x="89.25" y="255.91" style="fill:#F2F6FC;" width="227.5" height="135.7"/>
<g>
	<polygon style="fill:#E9EDF5;" points="249.924,162.828 316.752,162.828 249.924,96 	"/>
	<rect x="107.04" y="180.5" style="fill:#E9EDF5;" width="101" height="22.5"/>
	<rect x="107.04" y="219.16" style="fill:#E9EDF5;" width="101" height="22.5"/>
</g>
<g>
	<rect x="107.04" y="257.83" style="fill:#DCE1EB;" width="101" height="22.5"/>
	<rect x="197.97" y="296.5" style="fill:#DCE1EB;" width="101" height="22.5"/>
	<rect x="197.97" y="335.16" style="fill:#DCE1EB;" width="101" height="22.5"/>
</g>
<rect x="221.54" y="180.5" style="fill:#CDD2E1;" width="77.33" height="99.83"/>
<g>
	<rect x="221.54" y="255.91" style="fill:#BEC3D2;" width="77.33" height="24.425"/>
	<rect x="107.04" y="296.5" style="fill:#BEC3D2;" width="77.33" height="61.16"/>
</g>
<g>
</g>
<g>
</g>
<g>
</g>
<g>
</g>
<g>
</g>
<g>
</g>
<g>
</g>
<g>
</g>
<g>
</g>
<g>
</g>
<g>
</g>
<g>
</g>
<g>
</g>
<g>
</g>
<g>
</g>
</svg>
