<svg height="480pt" viewBox="0 -72 480.00992 480" width="480pt" xmlns="http://www.w3.org/2000/svg"><path d="m159.511719 256.003906c-4.246094-37.96875-37.414063-66.011718-75.5625-63.886718-38.148438 2.125-67.992188 33.679687-67.992188 71.886718 0 38.210938 29.84375 69.761719 67.992188 71.890625 38.148437 2.125 71.316406-25.917969 75.5625-63.890625.640625-5.3125.640625-10.683594 0-16zm-71.519531 48c-22.09375 0-40-17.90625-40-40 0-22.089844 17.90625-40 40-40 22.089843 0 40 17.910156 40 40 0 22.09375-17.910157 40-40 40zm0 0"/><path d="m87.992188 224.003906c-22.09375 0-40 17.910156-40 40 0 22.09375 17.90625 40 40 40 22.089843 0 40-17.90625 40-40 0-22.089844-17.910157-40-40-40zm0 64c-13.257813 0-24-10.742187-24-24 0-13.253906 10.742187-24 24-24 13.253906 0 24 10.746094 24 24-.042969 13.238282-10.761719 23.960938-24 24zm0 0" fill="#f9c60b"/><path d="m111.992188 264.003906c0 13.257813-10.746094 24-24 24-13.257813 0-24-10.742187-24-24 0-13.253906 10.742187-24 24-24 13.253906 0 24 10.746094 24 24zm0 0" fill="#ad7214"/><path d="m447.511719 256.003906c-.886719-8.355468-3.273438-16.484375-7.042969-24-14.21875-28.5625-45.542969-44.363281-76.964844-38.816406-31.425781 5.542969-55.449218 31.109375-59.035156 62.816406-.636719 5.316406-.636719 10.6875 0 16 3.585938 31.707032 27.609375 57.273438 59.035156 62.820313 31.421875 5.542969 62.746094-10.253907 76.964844-38.820313 2.535156-5.089844 4.46875-10.460937 5.761719-16 1.78125-7.867187 2.214843-15.984375 1.28125-24zm-71.519531 48c-22.09375 0-40-17.90625-40-40 0-22.089844 17.90625-40 40-40 22.089843 0 40 17.910156 40 40 0 22.09375-17.910157 40-40 40zm0 0"/><path d="m375.992188 224.003906c-22.09375 0-40 17.910156-40 40 0 22.09375 17.90625 40 40 40 22.089843 0 40-17.90625 40-40 0-22.089844-17.910157-40-40-40zm0 64c-13.257813 0-24-10.742187-24-24 0-13.253906 10.742187-24 24-24 13.253906 0 24 10.746094 24 24-.042969 13.238282-10.761719 23.960938-24 24zm0 0" fill="#f9c60b"/><path d="m399.992188 264.003906c0 13.257813-10.746094 24-24 24-13.257813 0-24-10.742187-24-24 0-13.253906 10.742187-24 24-24 13.253906 0 24 10.746094 24 24zm0 0" fill="#ad7214"/><path d="m303.992188 264.003906c-.003907 2.675782.15625 5.347656.476562 8h-144.957031c.640625-5.3125.640625-10.683594 0-16h144.957031c-.320312 2.65625-.480469 5.328125-.476562 8zm0 0" fill="#ad7214"/><path d="m391.992188.00390625h-80c-3.679688.00390625-6.878907 2.51171875-7.761719 6.08203175l-8.480469 33.917968h-271.757812c-3.679688.003906-6.878907 2.511719-7.761719 6.082032l-16 64c-.796875 3.257812.511719 6.667968 3.28125 8.558593l176 120c1.324219.890625 2.882812 1.363281 4.480469 1.359375h72c3.683593.023438 6.898437-2.496094 7.757812-6.078125l54.480469-217.921875h73.761719c4.417968 0 8-3.582031 8-8 0-4.417968-3.582032-7.99999975-8-7.99999975zm-328.242188 82.08203175-6.558594 24.558593c-.976562 3.484375-4.144531 5.898438-7.761718 5.921875-.699219-.007812-1.394532-.085937-2.078126-.242187-4.261718-1.179688-6.789062-5.558594-5.679687-9.839844l6.558594-24.558594c1.148437-4.285156 5.554687-6.828125 9.839843-5.679687 4.285157 1.148437 6.828126 5.554687 5.679688 9.839844zm48 0-13.679688 51.277343c-.945312 3.507813-4.128906 5.9375-7.757812 5.921875-.703125-.003906-1.398438-.085937-2.082031-.238281-4.261719-1.183594-6.789063-5.5625-5.679688-9.84375l13.679688-51.277344c1.148437-4.285156 5.554687-6.828125 9.839843-5.679687 4.285157 1.148437 6.828126 5.554687 5.679688 9.839844zm48 0-20.800781 77.917968c-.941407 3.507813-4.128907 5.9375-7.757813 5.921875-.699218 0-1.398437-.082031-2.082031-.242187-4.257813-1.179688-6.785156-5.558594-5.679687-9.839844l20.800781-77.917969c1.148437-4.285156 5.554687-6.828125 9.839843-5.679687 4.285157 1.148437 6.828126 5.554687 5.679688 9.839844zm48 0-27.917969 104.558593c-.980469 3.484375-4.144531 5.898438-7.761719 5.921875-.699218-.003906-1.398437-.082031-2.078124-.242187-4.261719-1.179688-6.789063-5.558594-5.679688-9.839844l27.917969-104.558594c1.148437-4.285156 5.554687-6.828125 9.839843-5.679687 4.285157 1.148437 6.828126 5.554687 5.679688 9.839844zm8.242188 125.917968c-.703126-.003906-1.398438-.085937-2.082032-.238281-4.261718-1.183594-6.789062-5.558594-5.679687-9.839844l32-120c1.148437-4.285156 5.554687-6.828125 9.839843-5.679687 4.285157 1.148437 6.828126 5.554687 5.679688 9.839844l-32 120c-.941406 3.503906-4.128906 5.933593-7.757812 5.917968zm0 0" fill="#f9c60b"/><path d="m393.429688 48.003906h-33.4375v48h39.839843zm0 0" fill="#f9c60b"/><path d="m399.832031 96.003906h-39.839843v-48h33.4375zm0 0" fill="#9fe0f6"/><g fill="#faab1c"><path d="m255.75 82.085938-32 120c-.941406 3.503906-4.128906 5.933593-7.757812 5.917968-.703126-.003906-1.398438-.085937-2.082032-.238281-4.261718-1.183594-6.789062-5.558594-5.679687-9.839844l32-120c1.148437-4.285156 5.554687-6.828125 9.839843-5.679687 4.285157 1.148437 6.828126 5.554687 5.679688 9.839844zm0 0"/><path d="m207.75 82.085938-27.917969 104.558593c-.980469 3.484375-4.144531 5.898438-7.761719 5.921875-.699218-.003906-1.398437-.082031-2.078124-.242187-4.261719-1.179688-6.789063-5.558594-5.679688-9.839844l27.917969-104.558594c1.148437-4.285156 5.554687-6.828125 9.839843-5.679687 4.285157 1.148437 6.828126 5.554687 5.679688 9.839844zm0 0"/><path d="m159.75 82.085938-20.800781 77.917968c-.941407 3.507813-4.128907 5.9375-7.757813 5.921875-.699218 0-1.398437-.082031-2.082031-.242187-4.257813-1.179688-6.785156-5.558594-5.679687-9.839844l20.800781-77.917969c1.148437-4.285156 5.554687-6.828125 9.839843-5.679687 4.285157 1.148437 6.828126 5.554687 5.679688 9.839844zm0 0"/><path d="m111.75 82.085938-13.679688 51.277343c-.945312 3.507813-4.128906 5.9375-7.757812 5.921875-.703125-.003906-1.398438-.085937-2.082031-.238281-4.261719-1.183594-6.789063-5.5625-5.679688-9.84375l13.679688-51.277344c1.148437-4.285156 5.554687-6.828125 9.839843-5.679687 4.285157 1.148437 6.828126 5.554687 5.679688 9.839844zm0 0"/><path d="m63.75 82.085938-6.558594 24.558593c-.976562 3.484375-4.144531 5.898438-7.761718 5.921875-.699219-.007812-1.394532-.085937-2.078126-.242187-4.261718-1.179688-6.789062-5.558594-5.679687-9.839844l6.558594-24.558594c1.148437-4.285156 5.554687-6.828125 9.839843-5.679687 4.285157 1.148437 6.828126 5.554687 5.679688 9.839844zm0 0"/></g><path d="m447.992188 112.003906h-25.441407l-14.71875-73.597656c-.761719-3.726562-4.039062-6.402344-7.839843-6.402344h-64c-3.6875-.019531-6.898438 2.5-7.761719 6.082032l-54.480469 217.917968h30.71875c3.585938-31.707031 27.609375-57.273437 59.035156-62.816406 31.421875-5.546875 62.746094 10.253906 76.964844 38.816406 3.769531 7.515625 6.15625 15.644532 7.042969 24h31.117187c.90625-2.542968 1.367188-5.21875 1.363282-7.917968v-104.082032c.300781-8.574218-2.972657-16.890625-9.039063-22.960937-6.070313-6.066407-14.386719-9.339844-22.960937-9.039063zm-88-64h33.4375l6.402343 48h-39.839843zm104 171.679688-50.960938-43.679688h-102.800781l.082031-.160156 3.917969-15.839844h101.761719c1.902343.015625 3.742187.695313 5.199218 1.921875l42.800782 36.71875zm0 0" fill="#f9c60b"/><path d="m463.992188 198.644531v21.039063l-50.960938-43.679688h-102.800781l.082031-.160156 3.917969-15.839844h101.761719c1.902343.015625 3.742187.695313 5.199218 1.921875zm0 0" fill="#faab1c"/><path d="m478.628906 256.003906c-2.386718 6.84375-7.78125 12.210938-14.636718 14.5625-2.527344.96875-5.214844 1.457032-7.921876 1.4375h-8.558593c.640625-5.3125.640625-10.683594 0-16zm0 0" fill="#ad7214"/></svg>