<?xml version="1.0" encoding="iso-8859-1"?>
<!-- Generator: Adobe Illustrator 19.0.0, SVG Export Plug-In . SVG Version: 6.00 Build 0)  -->
<svg version="1.1" id="Capa_1" xmlns="http://www.w3.org/2000/svg" xmlns:xlink="http://www.w3.org/1999/xlink" x="0px" y="0px"
	 viewBox="0 0 512 512" style="enable-background:new 0 0 512 512;" xml:space="preserve">
<circle style="fill:#005FD2;" cx="256" cy="256" r="256"/>
<path style="fill:#003D8D;" d="M512,256c0-11.083-0.706-22.001-2.072-32.713l-77.053-77.182c-5.572-5.324-13.107-8.607-21.375-8.607
	h-311c-17.051,0-31.002,13.951-31.002,31.002v174.998c0,8.379,3.372,16.005,8.822,21.598l145.081,144.847
	C234.076,511.301,244.956,512,256,512C397.385,512,512,397.385,512,256z"/>
<path style="fill:#FFB84D;" d="M411.5,374.501h-311c-17.051,0-31.002-13.951-31.002-31.002V168.501
	c0-17.051,13.951-31.002,31.002-31.002h311c17.051,0,31.002,13.951,31.002,31.002v174.998
	C442.502,360.55,428.551,374.501,411.5,374.501z"/>
<path style="fill:#FF8900;" d="M442.5,168.5v175c0,17.05-13.95,31-31,31H256v-237h155.5C428.55,137.5,442.5,151.45,442.5,168.5z"/>
<rect x="256" y="201.37" style="fill:#FFED97;" width="107.79" height="28"/>
<g>
	<rect x="256" y="252.25" style="fill:#77FEF6;" width="147.5" height="20.344"/>
	<rect x="256" y="290.29" style="fill:#77FEF6;" width="147.5" height="20.344"/>
</g>
<path style="fill:#FFFFFF;" d="M193.493,261.514c9.542-7.757,15.642-19.585,15.642-32.84c0-23.367-18.943-42.309-42.309-42.309
	s-42.309,18.943-42.309,42.309c0,13.256,6.1,25.083,15.642,32.841c-18.005,3.684-31.658,19.7-31.658,38.752v12.986
	c0,6.811,5.572,12.383,12.383,12.383h91.884c6.811,0,12.383-5.573,12.383-12.383v-12.986
	C225.15,281.214,211.497,265.198,193.493,261.514z"/>
<g>
</g>
<g>
</g>
<g>
</g>
<g>
</g>
<g>
</g>
<g>
</g>
<g>
</g>
<g>
</g>
<g>
</g>
<g>
</g>
<g>
</g>
<g>
</g>
<g>
</g>
<g>
</g>
<g>
</g>
</svg>
