<svg height="480pt" viewBox="0 -96 480.01318 480" width="480pt" xmlns="http://www.w3.org/2000/svg"><path d="m472.253906 128.246094-60.960937-78.320313c-.238281-.238281-.398438-.480469-.640625-.71875-5.957032-5.5625-13.699219-8.824219-21.839844-9.199219h-52.800781c-4.417969 0-8 3.582032-8 8v128h-200v8h-16v-8h-24v8h-16v-8h-64c-4.417969 0-8.0000002 3.582032-8.0000002 8v56c0 4.417969 3.5820312 8 8.0000002 8h40c.007812-5.5 1.121093-10.941406 3.28125-16 6.386719-14.585937 20.800781-24.003906 36.71875-24.003906 15.921875 0 30.332031 9.417969 36.722656 24.003906h22.558594c6.386719-14.585937 20.800781-24.003906 36.71875-24.003906 15.921875 0 30.332031 9.417969 36.722656 24.003906h142.558594c6.386719-14.585937 20.800781-24.003906 36.71875-24.003906 15.921875 0 30.332031 9.417969 36.722656 24.003906h42.398437c.59375-2.625.890626-5.308593.878907-8v-76.160156c.015625-7.285156-2.761719-14.300781-7.757813-19.601562zm-83.441406-72.238282c3.71875.367188 7.25 1.8125 10.160156 4.160157l52.800782 67.839843h-67.761719v-72zm0 0" fill="#0092c7"/><path d="m451.773438 128.007812h-67.761719v-72h4.800781c3.71875.367188 7.25 1.8125 10.160156 4.160157zm0 0" fill="#9fe0f6"/><path d="m88.011719 144.007812h24v32h-24zm0 0" fill="#b3b3b3"/><path d="m312.011719 112.007812c.421875 24.242188-9.496094 47.515626-27.277344 64h-156.722656v-136h-16v40h-24v-40h-16v136h-44.71875c-17.78125-16.484374-27.703125-39.757812-27.2812502-64 0-44.082031 30.4804692-80 68.0000002-80h176c1.359375 0 2.640625.078126 4 .160157 35.679687 2.398437 64 37.359375 64 79.839843zm0 0" fill="#b3b3b3"/><path d="m128.011719 248.007812c0 22.089844-17.90625 40-40 40-22.089844 0-40-17.910156-40-40 .007812-5.5 1.121093-10.941406 3.28125-16 6.386719-14.585937 20.800781-24.003906 36.71875-24.003906 15.921875 0 30.332031 9.417969 36.722656 24.003906 2.15625 5.058594 3.273437 10.5 3.277344 16zm0 0"/><path d="m440.011719 248.007812c0 22.089844-17.90625 40-40 40-22.089844 0-40-17.910156-40-40 .007812-5.5 1.121093-10.941406 3.28125-16 6.386719-14.585937 20.800781-24.003906 36.71875-24.003906 15.921875 0 30.332031 9.417969 36.722656 24.003906 2.15625 5.058594 3.273437 10.5 3.277344 16zm0 0"/><path d="m224.011719 248.007812c0 22.089844-17.90625 40-40 40-22.089844 0-40-17.910156-40-40 .007812-5.5 1.121093-10.941406 3.28125-16 6.386719-14.585937 20.800781-24.003906 36.71875-24.003906 15.921875 0 30.332031 9.417969 36.722656 24.003906 2.15625 5.058594 3.273437 10.5 3.277344 16zm0 0"/><path d="m112.011719 40.007812v40h-24v-40h-16v144h16v-40h24v40h16v-144zm0 88h-24v-32h24zm0 0" fill="#333"/><path d="m88.011719 96.007812h24v32h-24zm0 0" fill="#b3b3b3"/><path d="m256.011719 8.007812c0 4.417969-3.582031 8-8 8v16.160157c-1.359375-.082031-2.640625-.160157-4-.160157h-68v-16c-4.417969 0-8-3.582031-8-8 0-4.417968 3.582031-7.9999995 8-7.9999995h72c4.417969 0 8 3.5820315 8 7.9999995zm0 0" fill="#333"/><g fill="#046380"><path d="m463.371094 144.007812h-87.359375c-4.417969 0-8-3.582031-8-8v-80h16v72h67.761719l8.078124 10.398438.5625.558594c1.355469 1.433594 2.371094 3.15625 2.957032 5.042968zm0 0"/><path d="m.0117188 232.007812h51.2812502c-2.160157 5.058594-3.273438 10.5-3.28125 16h-40c-4.417969 0-8.0000002-3.582031-8.0000002-8zm0 0"/><path d="m147.292969 232.007812c-2.160157 5.058594-3.273438 10.5-3.28125 16h-16c-.003907-5.5-1.121094-10.941406-3.277344-16zm0 0"/><path d="m363.292969 232.007812c-2.160157 5.058594-3.273438 10.5-3.28125 16h-136c-.003907-5.5-1.121094-10.941406-3.277344-16zm0 0"/><path d="m479.132812 232.007812c-2.644531 10.347657-12.503906 17.171876-23.121093 16h-16c-.003907-5.5-1.121094-10.941406-3.277344-16zm0 0"/></g><path d="m112.011719 248.007812c0 13.253907-10.742188 24-24 24-13.253907 0-24-10.746093-24-24 0-13.257812 10.746093-24 24-24 13.257812 0 24 10.742188 24 24zm0 0" fill="#ccc"/><path d="m208.011719 248.007812c0 13.253907-10.742188 24-24 24-13.253907 0-24-10.746093-24-24 0-13.257812 10.746093-24 24-24 13.257812 0 24 10.742188 24 24zm0 0" fill="#ccc"/><path d="m424.011719 248.007812c0 13.253907-10.742188 24-24 24-13.253907 0-24-10.746093-24-24 0-13.257812 10.746093-24 24-24 13.257812 0 24 10.742188 24 24zm0 0" fill="#ccc"/></svg>