<svg height="511pt" viewBox="1 -57 511.99998 511" width="511pt" xmlns="http://www.w3.org/2000/svg"><path d="m256 77.160156h-30.90625v-20.601562c0-28.214844 20.730469-51.679688 47.761719-55.960938 4.675781-.742187 8.898437 2.910156 8.898437 7.640625v15.746094c0 3.597656-2.488281 6.683594-5.988281 7.519531-11.320313 2.707032-19.765625 12.914063-19.765625 25.054688zm0 0" fill="#8b9ba9"/><path d="m256 289.304688v-225.019532h-59.238281c-29.871094 0-54.082031 24.214844-54.082031 54.085938h-15.445313c-14.457031 0-26.980469 10.019531-30.152344 24.121094l-16.214843 72.113281h-51.507813c-11.378906 0-20.601563 9.222656-20.601563 20.605469v108.175781h487.789063c8.535156 0 15.453125-6.917969 15.453125-15.453125v-23.179688c0-8.53125-6.917969-15.449218-15.453125-15.449218zm0 0" fill="#ff7e40"/><path d="m256 312.480469v-248.195313h-30.90625v23.179688h-72.707031c-6.113281 8.761718-9.707031 19.410156-9.707031 30.90625h82.414062v194.109375h-25.710938v-97.875h-88.679687v45.554687c28.339844 5.867188 53.382813 25.898438 63.738281 52.324219h-110.164062v30.902344h432.269531c8.535156 0 15.453125-6.917969 15.453125-15.449219v-15.453125h-256zm0 0" fill="#f05434"/><path d="m7.726562 343.386719h56.550782v-30.90625h-56.550782c-4.265624 0-7.726562 3.460937-7.726562 7.726562v15.453125c0 4.269532 3.460938 7.726563 7.726562 7.726563zm0 0" fill="#8b9ba9"/><path d="m95.292969 397.472656c-29.824219 0-54.085938-24.261718-54.085938-54.085937 0-29.820313 24.261719-54.082031 54.085938-54.082031s54.085937 24.261718 54.085937 54.082031c0 29.824219-24.265625 54.085937-54.085937 54.085937zm0 0" fill="#596775"/><path d="m106.351562 290.445312c-6.339843 11.710938-4.570312 26.652344 5.332032 36.550782l-32.78125 32.78125c-9.898438-9.902344-24.839844-11.675782-36.554688-5.332032 5.117188 24.535157 26.910156 43.027344 52.945313 43.027344 29.824219 0 54.085937-24.261718 54.085937-54.085937 0-26.035157-18.492187-47.824219-43.027344-52.941407zm0 0" fill="#35404a"/><path d="m118.472656 343.386719c0 12.800781-10.378906 23.179687-23.179687 23.179687s-23.179688-10.378906-23.179688-23.179687 10.378907-23.179688 23.179688-23.179688 23.179687 10.378907 23.179687 23.179688zm0 0" fill="#e9e3d5"/><path d="m329.140625 397.472656c-29.820313 0-54.082031-24.261718-54.082031-54.085937 0-29.820313 24.261718-54.082031 54.082031-54.082031 29.824219 0 54.085937 24.261718 54.085937 54.082031 0 29.824219-24.261718 54.085937-54.085937 54.085937zm0 0" fill="#596775"/><path d="m340.199219 290.445312c-6.339844 11.710938-4.566407 26.652344 5.332031 36.550782l-32.78125 32.78125c-9.898438-9.902344-24.839844-11.675782-36.550781-5.332032 5.117187 24.535157 26.910156 43.027344 52.941406 43.027344 29.824219 0 54.085937-24.261718 54.085937-54.085937 0-26.035157-18.492187-47.824219-43.027343-52.941407zm0 0" fill="#35404a"/><path d="m352.320312 343.386719c0 12.800781-10.378906 23.179687-23.179687 23.179687s-23.179687-10.378906-23.179687-23.179687 10.378906-23.179688 23.179687-23.179688 23.179687 10.378907 23.179687 23.179688zm0 0" fill="#e9e3d5"/><path d="m437.3125 397.472656c-29.824219 0-54.085938-24.261718-54.085938-54.085937 0-29.820313 24.261719-54.082031 54.085938-54.082031 29.820312 0 54.082031 24.261718 54.082031 54.082031 0 29.824219-24.261719 54.085937-54.082031 54.085937zm0 0" fill="#596775"/><path d="m448.367188 290.445312c-6.339844 11.710938-4.566407 26.652344 5.332031 36.550782l-32.777344 32.78125c-9.898437-9.902344-24.84375-11.675782-36.554687-5.332032 5.117187 24.535157 26.910156 43.027344 52.945312 43.027344 29.820312 0 54.082031-24.261718 54.082031-54.085937 0-26.035157-18.488281-47.824219-43.027343-52.941407zm0 0" fill="#35404a"/><path d="m460.488281 343.386719c0 12.800781-10.375 23.179687-23.175781 23.179687-12.804688 0-23.179688-10.378906-23.179688-23.179687s10.375-23.179688 23.179688-23.179688c12.800781 0 23.175781 10.378907 23.175781 23.179688zm0 0" fill="#e9e3d5"/><path d="m199.382812 149.273438h-73.992187l-14.6875 65.332031h88.679687zm0 0" fill="#87f8f4"/><path d="m170.320312 183.699219h-52.667968l-6.949219 30.90625h88.679687v-65.332031h-29.0625zm0 0" fill="#00d3d8"/></svg>