<svg height="512pt" viewBox="0 -76 512 512" width="512pt" xmlns="http://www.w3.org/2000/svg"><path d="m210 15v225l-75 17.398438-54.300781 12.601562-80.699219-30v-90l105-60-69.300781-30 25.800781-51.601562c2.699219-5.097657 7.800781-8.398438 13.5-8.398438h120c8.402344 0 15 6.597656 15 15zm0 0" fill="#e63950"/><path d="m210 15v225l-75 17.398438v-257.398438h60c8.402344 0 15 6.597656 15 15zm0 0" fill="#cc2e43"/><path d="m512 255v30c0 8.398438-6.597656 15-15 15h-482c-8.402344 0-15-6.601562-15-15v-45h497c8.402344 0 15 6.597656 15 15zm0 0" fill="#444"/><path d="m512 255v30c0 8.398438-6.597656 15-15 15h-362v-60h362c8.402344 0 15 6.597656 15 15zm0 0" fill="#292929"/><path d="m150 75v60c0 8.398438-6.597656 15-15 15h-135v-15c0-2.402344.601562-4.5 1.5-6.601562l34.199219-68.398438h99.300781c8.402344 0 15 6.597656 15 15zm0 0" fill="#5a5a5a"/><path d="m135 210c-41.398438 0-75 33.601562-75 75s33.601562 75 75 75 75-33.601562 75-75-33.601562-75-75-75zm0 0" fill="#5a5a5a"/><path d="m210 285c0 41.398438-33.601562 75-75 75v-150c41.398438 0 75 33.601562 75 75zm0 0" fill="#444"/><path d="m135 240c-24.902344 0-45 20.097656-45 45 0 24.898438 20.097656 45 45 45s45-20.101562 45-45c0-24.902344-20.097656-45-45-45zm0 0" fill="#deecf1"/><path d="m180 285c0 24.898438-20.097656 45-45 45v-90c24.902344 0 45 20.097656 45 45zm0 0" fill="#c6e2e7"/><path d="m150 285c0 8.398438-6.597656 15-15 15s-15-6.601562-15-15c0-8.402344 6.597656-15 15-15s15 6.597656 15 15zm0 0" fill="#a8d3d8"/><path d="m150 285c0 8.398438-6.597656 15-15 15v-30c8.402344 0 15 6.597656 15 15zm0 0" fill="#8ebac5"/><path d="m377 210c-41.398438 0-75 33.601562-75 75s33.601562 75 75 75 75-33.601562 75-75-33.601562-75-75-75zm0 0" fill="#444"/><path d="m377 240c-24.902344 0-45 20.097656-45 45 0 24.898438 20.097656 45 45 45s45-20.101562 45-45c0-24.902344-20.097656-45-45-45zm0 0" fill="#c6e2e7"/><path d="m392 285c0 8.398438-6.597656 15-15 15s-15-6.601562-15-15c0-8.402344 6.597656-15 15-15s15 6.597656 15 15zm0 0" fill="#8ebac5"/><path d="m150 75v60c0 8.398438-6.597656 15-15 15v-90c8.402344 0 15 6.597656 15 15zm0 0" fill="#444"/></svg>