<?xml version="1.0" encoding="iso-8859-1"?>
<!-- Generator: Adobe Illustrator 19.0.0, SVG Export Plug-In . SVG Version: 6.00 Build 0)  -->
<svg version="1.1" id="Capa_1" xmlns="http://www.w3.org/2000/svg" xmlns:xlink="http://www.w3.org/1999/xlink" x="0px" y="0px"
	 viewBox="0 0 497.706 497.706" style="enable-background:new 0 0 497.706 497.706;" xml:space="preserve">
<g>
	<path style="fill:#46505A;" d="M181.78,319.736L181.78,319.736h-31.037c0,0-87.453,59.727-74.763,177.969h44.76l0,0l7.511-7.038
		l7.511,7.038l0,0h46.019l0,0l67.073-94.289L181.78,319.736z"/>
	<path style="fill:#46505A;" d="M346.963,319.736h-31.037l0,0l-67.073,83.68l67.073,94.289l0,0h46.019l7.511-9.042l7.511,9.042
		h44.76C434.415,379.462,346.963,319.736,346.963,319.736z"/>
</g>
<g>
	<path style="fill:#3D474E;" d="M120.739,497.705v-68.823c0-4.149,3.363-7.511,7.511-7.511s7.511,3.362,7.511,7.511v68.823H120.739z
		"/>
	<path style="fill:#3D474E;" d="M361.944,497.706v-68.824c0-4.149,3.363-7.511,7.511-7.511c4.148,0,7.511,3.362,7.511,7.511v68.824
		H361.944z"/>
</g>
<polygon style="fill:#EEECED;" points="181.78,319.736 181.78,497.705 222.816,497.705 248.853,476.174 274.89,497.705 
	315.926,497.705 315.926,319.736 "/>
<polygon style="fill:#BB3649;" points="274.89,497.705 266.625,424.815 231.081,424.815 222.816,497.705 "/>
<path style="fill:#924436;" d="M248.853,0C135.811,0,42.617,83.317,32.049,189.499l23.173,50.299h393.557l16.878-50.298
	C455.088,83.317,361.895,0,248.853,0z"/>
<path style="fill:#7D3A2E;" d="M214.08,2.682C117.208,17.706,41.511,94.433,32.049,189.499l19.345,41.99
	C62.918,132.03,125.908,47.324,214.08,2.682z"/>
<path style="fill:#D55C64;" d="M271.96,411.339l-5.511-38.08h-35.091l-5.613,38.08c-1.437,5.179,0.742,10.682,5.335,13.474
	l11.534,7.011c3.832,2.329,8.644,2.329,12.477,0l11.534-7.011C271.218,422.023,273.397,416.519,271.96,411.339z"/>
<path style="fill:#FBC4AC;" d="M451.83,243.316l-12.795-21.785l-0.175,0.18l-1.598-0.631c0,0-58.949-14.878-58.949-83.386
	c0,0-54.63,14.02-129.459,14.02c-74.83,0-129.459-14.02-129.459-14.02c0,68.508-58.949,83.386-58.949,83.386l-1.607,0.621
	l-0.166-0.171l-12.795,21.785l20.723,19.787v-0.001c23.873,74.662,96.431,128.964,182.253,128.964
	c85.827,0,158.381-54.307,182.25-128.974l0.004,0.012L451.83,243.316z"/>
<path style="fill:#FF8087;" d="M153.699,247.988h-29.605c-4.148,0-7.511,3.363-7.511,7.511c0,4.148,3.363,7.511,7.511,7.511h29.605
	c4.148,0,7.511-3.363,7.511-7.511C161.21,251.351,157.847,247.988,153.699,247.988z"/>
<g>
	<path style="fill:#3A484A;" d="M138.896,232.564c4.148,0,7.511-3.363,7.511-7.511v-22.024c0-4.148-3.363-7.511-7.511-7.511
		s-7.511,3.363-7.511,7.511v22.024C131.386,229.203,134.748,232.564,138.896,232.564z"/>
	<path style="fill:#3A484A;" d="M358.817,232.564c4.148,0,7.511-3.363,7.511-7.511v-22.024c0-4.148-3.363-7.511-7.511-7.511
		c-4.148,0-7.511,3.363-7.511,7.511v22.024C351.306,229.203,354.669,232.564,358.817,232.564z"/>
</g>
<path style="fill:#FF8087;" d="M373.612,247.988h-29.605c-4.148,0-7.511,3.363-7.511,7.511c0,4.148,3.363,7.511,7.511,7.511h29.605
	c4.148,0,7.511-3.363,7.511-7.511C381.122,251.351,377.759,247.988,373.612,247.988z"/>
<path style="fill:#C36E5C;" d="M248.853,284.255c47.303,27.011,63.026,3.668,63.026,3.668c-26.011-4.002,0-64.027-63.026-46.814
	c-63.026-17.212-37.015,42.813-63.026,46.814C185.827,287.924,201.55,311.267,248.853,284.255z"/>
<g>
	<path style="fill:#E3B098;" d="M440.652,178.754c1.308,21.835-1.625,42.778-1.625,42.778l0,0
		c-0.966,14.375-3.682,28.292-7.928,41.57c2.013,0.292,4.069,0.453,6.162,0.453c23.457,0,42.474-19.016,42.474-42.473
		C479.736,198.766,462.523,180.484,440.652,178.754z"/>
	<path style="fill:#E3B098;" d="M97.295,233.172v0.002c-2.939-9.193-5.371-18.598-7.272-28.183
		c-14.772,12.351-29.578,16.091-29.578,16.091l-1.607,0.621l-0.166-0.171l0.007-0.002c-0.007-0.051-2.931-20.967-1.625-42.775
		c-21.87,1.729-39.082,20.012-39.082,42.327c0,23.457,19.016,42.473,42.474,42.473c2.091,0,4.145-0.159,6.155-0.452v-0.001
		c22.587,70.639,88.756,123.043,168.506,128.486C169.546,358.881,119.284,301.942,97.295,233.172z"/>
</g>
<g>
</g>
<g>
</g>
<g>
</g>
<g>
</g>
<g>
</g>
<g>
</g>
<g>
</g>
<g>
</g>
<g>
</g>
<g>
</g>
<g>
</g>
<g>
</g>
<g>
</g>
<g>
</g>
<g>
</g>
</svg>
