<?xml version="1.0" encoding="iso-8859-1"?>
<!-- Generator: Adobe Illustrator 19.0.0, SVG Export Plug-In . SVG Version: 6.00 Build 0)  -->
<svg version="1.1" id="Capa_1" xmlns="http://www.w3.org/2000/svg" xmlns:xlink="http://www.w3.org/1999/xlink" x="0px" y="0px"
	 viewBox="0 0 512 512" style="enable-background:new 0 0 512 512;" xml:space="preserve">
<path style="fill:#B5B5B5;" d="M136.535,178.859v-76.8c-14.097-14.14-36.992-14.165-51.132-0.068
	c-0.026,0.026-0.043,0.043-0.068,0.068v76.8C99.483,164.753,122.386,164.753,136.535,178.859z"/>
<g>
	<path style="fill:#F5F5F5;" d="M136.535,102.4v76.8c-14.097,14.14-36.992,14.165-51.132,0.068
		c-0.026-0.026-0.043-0.043-0.068-0.068v-76.8C99.483,116.506,122.386,116.506,136.535,102.4z"/>
	<path style="fill:#F5F5F5;" d="M85.335,238.933V179.2c14.097,14.14,36.992,14.165,51.132,0.068
		c0.026-0.026,0.051-0.043,0.068-0.068V256c-14.148,14.106-37.052,14.106-51.2,0V238.933z"/>
</g>
<g>
	<path style="fill:#FFCBA8;" d="M273.068,264.533v-22.016c8.141,3.26,16.828,4.941,25.6,4.949h17.067
		c8.772-0.009,17.459-1.69,25.6-4.949v22.016L307.201,307.2L273.068,264.533z"/>
	<path style="fill:#FFCBA8;" d="M85.335,238.933V256c14.148,14.106,37.052,14.106,51.2,0v-17.067c14.14,0,25.6,11.46,25.6,25.6
		V307.2h-51.2v-17.067h-25.6c-14.14,0-25.6-11.46-25.6-25.6v-0.768c-0.017-13.696,11.068-24.815,24.764-24.832
		c0.026,0,0.043,0,0.068,0H85.335z"/>
	<path style="fill:#FFCBA8;" d="M401.068,128c9.412,0.026,17.041,7.654,17.067,17.067c-0.068,9.395-7.671,16.998-17.067,17.067
		h-17.067V128H401.068z"/>
	<path style="fill:#FFCBA8;" d="M384.001,110.933V179.2c-0.009,27.827-16.879,52.864-42.667,63.317
		c-8.141,3.26-16.828,4.941-25.6,4.949h-17.067c-8.772-0.009-17.459-1.69-25.6-4.949c-25.788-10.453-42.658-35.49-42.667-63.317
		v-68.267h38.4c-7.066,0-12.8,5.734-12.8,12.8s5.734,12.8,12.8,12.8c7.066,0,12.8-5.734,12.8-12.8s-5.734-12.8-12.8-12.8h76.8
		c-7.066,0-12.8,5.734-12.8,12.8s5.734,12.8,12.8,12.8s12.8-5.734,12.8-12.8s-5.734-12.8-12.8-12.8H384.001z"/>
	<path style="fill:#FFCBA8;" d="M230.401,128v34.133h-17.067c-9.395-0.068-16.998-7.671-17.067-17.067
		c0.026-9.412,7.654-17.041,17.067-17.067H230.401z"/>
</g>
<polygon style="fill:#168DE2;" points="443.735,42.667 384.001,68.267 307.201,51.2 230.401,68.267 170.668,42.667 307.201,8.533 
	"/>
<polygon style="fill:#00448F;" points="384.001,68.267 384.001,110.933 345.601,110.933 268.801,110.933 230.401,110.933 
	230.401,68.267 307.201,51.2 "/>
<path style="fill:#FFDB6F;" d="M407.98,275.029L341.335,358.4v145.067h-68.267V358.4l-66.645-83.371
	c12.587-6.886,26.701-10.496,41.045-10.496h25.6l34.133,42.667l34.133-42.667h25.6C381.279,264.533,395.393,268.143,407.98,275.029z
	"/>
<g>
	<path style="fill:#168DE2;" d="M162.135,341.333v162.133c-28.279,0-51.2-22.921-51.2-51.2V307.2h51.2V341.333z"/>
	<path style="fill:#168DE2;" d="M204.801,503.467h-42.667v-153.6c-0.009-31.164,16.973-59.853,44.288-74.837l66.645,83.371v145.067
		H204.801z"/>
	<path style="fill:#168DE2;" d="M409.601,503.467h-68.267V358.4l66.645-83.371c27.315,14.985,44.297,43.674,44.288,74.837v153.6
		H409.601z"/>
</g>
<g>
	<circle style="fill:#603C2F;" cx="345.601" cy="123.733" r="12.8"/>
	<circle style="fill:#603C2F;" cx="268.801" cy="123.733" r="12.8"/>
</g>
<g>
	<rect x="196.268" y="307.2" style="fill:#1378BF;" width="17.067" height="196.267"/>
	<rect x="401.068" y="307.2" style="fill:#1378BF;" width="17.067" height="196.267"/>
</g>
<rect x="276.997" y="153.587" transform="matrix(-0.1646 0.9864 -0.9864 -0.1646 512.7255 -110.0149)" style="fill:#EBB691;" width="51.91" height="17.067"/>
<rect x="435.201" y="42.667" style="fill:#00448F;" width="17.067" height="59.733"/>
<g>
	<path style="fill:#B5B5B5;" d="M110.935,198.357c-11.887,0.034-23.287-4.693-31.667-13.124l12.066-12.066
		c5.197,5.222,12.262,8.149,19.627,8.124h0.043c7.313,0.017,14.327-2.901,19.473-8.107l12.1,12.032
		c-8.337,8.431-19.712,13.167-31.573,13.141L110.935,198.357L110.935,198.357z"/>
	<path style="fill:#B5B5B5;" d="M157.399,203.366l-25.6-17.067c-3.925-2.611-4.983-7.91-2.364-11.836
		c0.623-0.939,1.425-1.741,2.364-2.364l25.6-17.067l9.472,14.199l-14.976,9.967l14.95,9.967L157.399,203.366z"/>
</g>
<path style="fill:#EBB691;" d="M307.201,223.616h-0.068c-11.861,0.026-23.236-4.71-31.573-13.141l12.1-12.032
	c5.146,5.205,12.16,8.124,19.473,8.107l0,0c7.364,0.026,14.43-2.901,19.627-8.124l12.066,12.066
	C330.455,218.914,319.071,223.633,307.201,223.616z"/>
<rect x="276.997" y="153.587" transform="matrix(-0.1646 0.9864 -0.9864 -0.1646 512.7255 -110.0149)" width="51.91" height="17.067"/>
<path d="M102.401,298.667v153.6c0.034,32.973,26.761,59.699,59.733,59.733h290.133c4.71,0,8.533-3.823,8.533-8.533v-153.6
	c0.026-51.814-41.95-93.841-93.764-93.867c-0.034,0-0.068,0-0.102,0h-17.067v-8.218c26.138-12.851,42.684-39.458,42.667-68.582
	v-8.533h8.533c14.106-0.068,25.532-11.494,25.6-25.6c0-14.14-11.46-25.6-25.6-25.6h-8.533V73.899l42.667-18.287V102.4h17.067V42.667
	h-0.077c0-0.23,0.068-0.452,0.051-0.683c-0.29-3.652-2.884-6.707-6.443-7.595L309.266,0.256c-1.357-0.341-2.773-0.341-4.13,0
	L168.603,34.389c-4.574,1.143-7.356,5.777-6.212,10.351c0.649,2.586,2.466,4.719,4.915,5.769l54.562,23.39v45.568h-8.533
	c-14.14,0-25.6,11.46-25.6,25.6c0.068,14.106,11.494,25.532,25.6,25.6h8.533v8.533c-0.017,29.124,16.529,55.723,42.667,68.582V256
	h-17.067c-30.677-0.102-59.426,14.959-76.8,40.252v-31.718c-0.06-15.514-10.573-29.039-25.6-32.922v-36.463l12.331,8.218
	l9.472-14.199l-14.976-9.967l14.95-9.967l-9.472-14.199l-12.305,8.226V102.4c-0.026-2.253-0.947-4.403-2.56-5.973l0.06-0.06
	c-0.128-0.128-0.29-0.222-0.427-0.35c-0.137-0.128-0.273-0.239-0.427-0.35c-8.269-7.953-19.302-12.39-30.78-12.382h-0.102
	c-11.469,0-22.485,4.463-30.72,12.433l-0.41,0.367c-0.128,0.128-0.29,0.213-0.418,0.341l0.06,0.051
	c-1.613,1.57-2.534,3.721-2.56,5.973v128.956c-15.181,3.763-25.779,17.485-25.583,33.126c0,18.85,15.283,34.133,34.133,34.133
	H102.401z M153.601,494.08c-19.857-4.079-34.108-21.547-34.133-41.813V315.733h34.133V332.8h-17.067v17.067h17.067V494.08z
	 M443.735,349.867v145.067h-25.6V307.2h-17.067v187.733h-51.2V361.395l59.981-75.017
	C430.986,300.604,443.675,324.395,443.735,349.867z M281.601,254.003c5.598,1.306,11.324,1.971,17.067,1.997h17.067
	c5.743-0.026,11.469-0.691,17.067-1.997v7.535l-25.6,32l-25.6-32V254.003z M401.068,136.533c4.71,0,8.533,3.823,8.533,8.533
	c0,2.295-0.939,4.497-2.611,6.076c-1.553,1.596-3.695,2.483-5.922,2.458h-8.533v-17.067H401.068z M238.935,102.4V75.093
	l68.267-15.172l68.267,15.172V102.4H238.935z M307.201,17.331L417.094,44.8l-33.946,14.541l-74.121-16.469
	c-1.22-0.273-2.483-0.273-3.703,0l-74.069,16.469l-33.92-14.507L307.201,17.331z M213.335,153.6
	c-2.304,0.009-4.506-0.939-6.084-2.611c-1.579-1.562-2.466-3.695-2.449-5.922c0-4.71,3.823-8.533,8.533-8.533h8.533V153.6H213.335z
	 M238.935,179.2v-59.733h17.843c-2.423,6.639,0.99,13.986,7.629,16.418c6.639,2.423,13.986-0.99,16.418-7.629
	c1.033-2.833,1.033-5.948,0-8.781h52.753c-2.423,6.639,0.99,13.986,7.629,16.418c6.639,2.423,13.986-0.99,16.418-7.629
	c1.033-2.833,1.033-5.948,0-8.781h17.843v59.733c0.06,24.346-14.711,46.285-37.291,55.39c-7.134,2.842-14.754,4.318-22.443,4.326
	h-17.067c-7.671-0.009-15.266-1.468-22.391-4.318C253.672,225.519,238.883,203.571,238.935,179.2z M268.972,273.067l31.573,39.467
	c3.209,3.678,8.789,4.062,12.476,0.853c0.307-0.264,0.589-0.555,0.853-0.853l31.573-39.467h21.487
	c9.438,0.017,18.79,1.775,27.597,5.171l-59.861,74.837c-1.203,1.51-1.869,3.388-1.869,5.325v136.533h-51.2V358.4
	c0-1.937-0.657-3.814-1.869-5.325l-59.827-74.846c8.798-3.388,18.142-5.137,27.563-5.163H268.972z M204.511,286.379l60.023,75.017
	v133.538h-51.2V307.2h-17.067v187.733h-25.6V349.867C170.728,324.403,183.4,300.621,204.511,286.379z M93.868,247.467v-52.48
	c5.41,2.227,11.213,3.379,17.067,3.371h0.068c5.828,0,11.605-1.135,16.998-3.362v57.173c-10.112,7.578-24.021,7.578-34.133,0
	V247.467z M128.001,175.232c-4.813,3.891-10.803,6.025-16.99,6.059h-0.077c-6.212-0.026-12.228-2.167-17.067-6.067V118.17
	c10.957,4.369,23.177,4.369,34.133,0V175.232z M110.858,100.352h0.077c3.533,0.009,7.031,0.683,10.308,2.005
	c-6.622,2.466-13.909,2.466-20.531,0C103.937,101.052,107.385,100.369,110.858,100.352z M68.268,263.765
	c0.026-5.914,3.302-11.324,8.533-14.08v6.34c0.009,2.236,0.896,4.386,2.466,5.973c17.485,17.459,45.815,17.459,63.3,0
	c1.596-1.596,2.492-3.746,2.5-5.999v-6.161c5.265,3.021,8.516,8.627,8.533,14.694v34.133h-34.133v-8.533
	c0-4.71-3.823-8.533-8.533-8.533h-25.6c-9.532-0.102-17.178-7.919-17.075-17.451C68.259,264.021,68.268,263.893,68.268,263.765z"/>
<path d="M307.201,223.616c11.887,0.034,23.287-4.693,31.667-13.124l-12.066-12.066c-5.197,5.222-12.262,8.149-19.627,8.124l0,0
	c-7.313,0.017-14.327-2.901-19.473-8.107l-12.1,12.032c8.337,8.431,19.712,13.167,31.573,13.141L307.201,223.616z"/>
<g>
</g>
<g>
</g>
<g>
</g>
<g>
</g>
<g>
</g>
<g>
</g>
<g>
</g>
<g>
</g>
<g>
</g>
<g>
</g>
<g>
</g>
<g>
</g>
<g>
</g>
<g>
</g>
<g>
</g>
</svg>
