<svg height="511.99872pt" viewBox="1 1 511.99872 511.99872" width="511.99872pt" xmlns="http://www.w3.org/2000/svg"><path d="m256 349.089844c-12.855469 0-23.273438-10.417969-23.273438-23.273438v-93.089844c0-12.851562 10.417969-23.273437 23.273438-23.273437 12.851562 0 23.273438 10.421875 23.273438 23.273437v93.089844c0 12.855469-10.421876 23.273438-23.273438 23.273438zm0 0" fill="#9fd9c5"/><path d="m279.273438 93.089844c0 12.855468-10.421876 23.273437-23.273438 23.273437-12.855469 0-23.273438-10.417969-23.273438-23.273437 0-12.851563 10.417969-23.273438 23.273438-23.273438 12.851562 0 23.273438 10.421875 23.273438 23.273438zm0 0" fill="#9f4979"/><path d="m279.273438 418.90625c0 12.855469-10.421876 23.273438-23.273438 23.273438-12.855469 0-23.273438-10.417969-23.273438-23.273438 0-12.851562 10.417969-23.269531 23.273438-23.269531 12.851562 0 23.273438 10.417969 23.273438 23.269531zm0 0" fill="#9f4979"/><path d="m197.816406 114.917969c0 12.851562-10.417968 23.269531-23.269531 23.269531-12.855469 0-23.273437-10.417969-23.273437-23.269531 0-12.855469 10.417968-23.273438 23.273437-23.273438 12.851563 0 23.269531 10.417969 23.269531 23.273438zm0 0" fill="#f0a319"/><path d="m360.726562 397.082031c0 12.851563-10.417968 23.273438-23.273437 23.273438-12.851563 0-23.273437-10.421875-23.273437-23.273438 0-12.851562 10.421874-23.273437 23.273437-23.273437 12.855469 0 23.273437 10.421875 23.273437 23.273437zm0 0" fill="#f0a319"/><path d="m138.1875 174.546875c0 12.851563-10.417969 23.269531-23.269531 23.269531-12.855469 0-23.273438-10.417968-23.273438-23.269531 0-12.855469 10.417969-23.273437 23.273438-23.273437 12.851562 0 23.269531 10.417968 23.269531 23.273437zm0 0" fill="#9fd9c5"/><path d="m420.355469 337.453125c0 12.855469-10.421875 23.273437-23.273438 23.273437-12.851562 0-23.273437-10.417968-23.273437-23.273437 0-12.851563 10.421875-23.273437 23.273437-23.273437 12.851563 0 23.273438 10.421874 23.273438 23.273437zm0 0" fill="#9fd9c5"/><path d="m116.363281 256c0 12.851562-10.417969 23.273438-23.273437 23.273438-12.851563 0-23.273438-10.421876-23.273438-23.273438 0-12.855469 10.421875-23.273438 23.273438-23.273438 12.855468 0 23.273437 10.417969 23.273437 23.273438zm0 0" fill="#cd84a4"/><path d="m442.179688 256c0 12.851562-10.417969 23.273438-23.273438 23.273438-12.851562 0-23.269531-10.421876-23.269531-23.273438 0-12.855469 10.417969-23.273438 23.269531-23.273438 12.855469 0 23.273438 10.417969 23.273438 23.273438zm0 0" fill="#cd84a4"/><path d="m138.1875 337.453125c0 12.855469-10.417969 23.273437-23.269531 23.273437-12.855469 0-23.273438-10.417968-23.273438-23.273437 0-12.851563 10.417969-23.273437 23.273438-23.273437 12.851562 0 23.269531 10.421874 23.269531 23.273437zm0 0" fill="#ebb5bc"/><path d="m420.355469 174.546875c0 12.851563-10.421875 23.269531-23.273438 23.269531-12.851562 0-23.273437-10.417968-23.273437-23.269531 0-12.855469 10.421875-23.273437 23.273437-23.273437 12.851563 0 23.273438 10.417968 23.273438 23.273437zm0 0" fill="#ebb5bc"/><path d="m197.816406 397.082031c0 12.851563-10.417968 23.273438-23.269531 23.273438-12.855469 0-23.273437-10.421875-23.273437-23.273438 0-12.851562 10.417968-23.273437 23.273437-23.273437 12.851563 0 23.269531 10.421875 23.269531 23.273437zm0 0" fill="#230022"/><path d="m360.726562 114.917969c0 12.851562-10.417968 23.269531-23.273437 23.269531-12.851563 0-23.273437-10.417969-23.273437-23.269531 0-12.855469 10.421874-23.273438 23.273437-23.273438 12.855469 0 23.273437 10.417969 23.273437 23.273438zm0 0" fill="#230022"/><path d="m176.140625 126.511719 52.988281-88.003907c10.417969-17.304687 1.515625-38.695312-19.675781-38.507812h-116.363281c-21.191406.1875-30.179688 22.777344-19.410156 39.894531l54.78125 87.046875c10.773437 17.113282 37.261718 16.875 47.679687-.429687zm0 0" fill="#9f4979"/><path d="m211.652344 33.351562c-4.085938-.003906-7.871094 2.132813-9.976563 5.636719l-45.472656 75.519531c-1.035156 1.722657-3.355469 1.855469-4.039063 1.855469-1.554687.089844-3.050781-.589843-4.007812-1.816406l-9.632812-15.3125c-3.425782-5.441406-10.609376-7.074219-16.046876-3.652344-5.433593 3.417969-7.074218 10.59375-3.664062 16.03125l8.511719 13.523438.003906.007812.015625.019531.003906.007813.015625.027344.007813.007812.003906.011719.011719.019531.011719.015625.023437.035156.046875.078126.015625.019531.128906.207031.019531.03125.011719.023438.011719.011718v.003906l.042969.070313.011719.011719.101562.167968.019531.027344.023438.039063.003906.003906.027344.046875.054687.085938.003906.003906.050782.082031v.003906l.023437.035157.003907.003906.007812.015625.007812.007812.003907.007813.007812.011718c.257813.414063.410157.652344.410157.652344 8.710937 13.089844 26.386718 16.636719 39.476562 7.925782 3.28125-2.1875 6.078125-5.03125 8.203125-8.351563 0 0 .710937-1.179687 1.953125-3.246094v-.003906c1.242188-2.0625 3.019531-5.007813 5.144531-8.542969l.015625-.019531c1.0625-1.769531 2.214844-3.679687 3.433594-5.703125v-.003906c.609375-1.011719 1.234375-2.050782 1.875-3.113282l.003906-.007812c.636719-1.054688 1.285156-2.132812 1.945313-3.230469l.03125-.050781c1.324219-2.199219 2.691406-4.472656 4.082031-6.78125l.019531-.03125c.695313-1.152344 1.394531-2.316406 2.097657-3.484375l.011718-.023437c.175782-.285157.347656-.574219.519532-.859376l.007812-.011718.515625-.855469.03125-.054687.503906-.835938.019531-.03125.246094-.410156.03125-.050782.082032-.136718.046874-.082032.101563-.164062.082031-.140625.050782-.078125.039062-.066406.089844-.148438.042968-.074218.109376-.179688.003906-.007812.058594-.097657.015624-.023437.078126-.132813.246093-.40625.253907-.421875.023437-.042968.515625-.859376.007812-.003906.261719-.4375v-.003906l.238281-.394531.058594-.09375c.691406-1.148438 1.378906-2.289063 2.0625-3.429688l.035156-.058593c.339844-.5625.675782-1.121094 1.011719-1.679688l.035157-.058594.492187-.816406.015625-.023438c.164062-.273437.332031-.554687.496094-.828124l.019531-.027344 1.011719-1.683594.003906-.003906c.25-.417969.5-.832032.746094-1.246094l.015625-.019531.117187-.195313.003906-.007812.054688-.09375.097656-.15625.03125-.050782v-.007812c.3125-.511719.617188-1.023438.921875-1.527344l.015625-.023437c.242188-.40625.480469-.800781.722656-1.199219l.003907-.007812.050781-.089844 1.046875-1.734375.007813-.011719.164062-.277344.007812-.011718.0625-.105469.074219-.117188.015625-.03125.046875-.078125.007813-.007812.035156-.0625 1.226562-2.03125.035157-.0625 4.945312-8.214844.007813-.015625 4.929687-8.179687c3.3125-5.511719 1.53125-12.660157-3.976562-15.976563-1.804688-1.085937-3.875-1.660156-5.984375-1.664063zm0 0" fill="#6b3062"/><path d="m232.726562 302.542969c-12.851562 0-23.269531-10.421875-23.269531-23.273438 0-6.171875 2.453125-12.089843 6.816407-16.453125l93.089843-93.089844c9.085938-9.085937 23.820313-9.085937 32.910157 0 9.085937 9.085938 9.085937 23.820313 0 32.910157l-93.09375 93.089843c-4.355469 4.371094-10.28125 6.824219-16.453126 6.816407zm0 0" fill="#f0a319"/><path d="m279.277344 256.003906c0 12.851563-10.421875 23.273438-23.273438 23.273438-12.855468 0-23.273437-10.421875-23.273437-23.273438 0-12.855468 10.417969-23.273437 23.273437-23.273437 12.851563 0 23.273438 10.417969 23.273438 23.273437zm0 0" fill="#f6cd8b"/><path d="m256 244.363281c0 6.425781-5.210938 11.636719-11.636719 11.636719s-11.632812-5.210938-11.632812-11.636719 5.207031-11.632812 11.632812-11.632812 11.636719 5.207031 11.636719 11.632812zm0 0" fill="#fbe9cc"/><path d="m256 512c-141.160156 0-256-114.84375-256-256 .0078125-101.800781 60.296875-193.933594 153.578125-234.691406 11.78125-5.148438 25.503906.230468 30.648437 12.007812 5.148438 11.78125-.230468 25.503906-12.011718 30.648438-76.332032 33.347656-125.667969 108.738281-125.667969 192.035156 0 115.488281 93.964844 209.453125 209.453125 209.453125s209.453125-93.964844 209.453125-209.453125c.394531-107.710938-81.269531-198.015625-188.476563-208.421875-12.789062-1.265625-22.132812-12.664063-20.863281-25.453125 1.265625-12.789062 12.664063-22.1328125 25.453125-20.863281 131.375 13.042969 230.433594 122.566406 230.433594 254.738281 0 141.15625-114.84375 256-256 256zm0 0" fill="#9f4979"/><path d="m100.875 86.828125c-3.058594-.003906-5.992188 1.199219-8.164062 3.34375-83.492188 82.222656-92.839844 213.699219-21.816407 306.902344 3.894531 5.113281 11.199219 6.09375 16.308594 2.199219 5.097656-3.890626 6.089844-11.171876 2.214844-16.28125-5.058594-6.628907-9.722657-13.554688-13.957031-20.738282l-.007813-.011718c-.109375-.179688-.21875-.367188-.324219-.550782l-.003906-.007812-.0625-.105469-.003906-.007813c-.085938-.148437-.171875-.289062-.257813-.4375l-.003906-.011718-.0625-.101563-.007813-.015625-.058593-.101562-.003907-.011719c-.082031-.140625-.167968-.289063-.25-.429687l-.011718-.023438-.058594-.097656-.007812-.011719c-.105469-.183594-.207032-.363281-.3125-.546875l-.011719-.023438-.054688-.09375-.015625-.023437-.054687-.09375-.007813-.019531c-.058594-.097656-.121094-.210938-.175781-.308594l-.015625-.023438-.070312-.128906-.046876-.082031-.019531-.035156-.050781-.085938-.003906-.011719-.101563-.175781-.027343-.046875-.042969-.078125-.023438-.046875-.042969-.074218-.03125-.050782-.039062-.074218-.027344-.050782-.042968-.074218-.015626-.027344-.09375-.171875-.023437-.039063-.042969-.078125-.027344-.046875-.039062-.074218-.03125-.054688-.039062-.070312-.027344-.050782-.078125-.136718-.027344-.050782-.035156-.066406-.035157-.0625-.035156-.066406-.039062-.0625-.03125-.0625-.035156-.0625-.039063-.066406-.050781-.09375-.015625-.03125-.066407-.117188-.03125-.058594-.039062-.070312-.035156-.0625-.03125-.0625-.039063-.066406-.039062-.070313-.027344-.054687-.058594-.105469-.035156-.0625-.042969-.082031-.03125-.054688-.039062-.070312-.03125-.0625-.039063-.070313-.03125-.054687-.042969-.082032-.023437-.046875-.070313-.125-.019531-.035156-.046875-.09375-.027344-.046875-.070312-.128906-.050781-.097656-.019531-.03125-.066407-.128907h-.003906l-.070313-.132812-.015624-.03125-.054688-.101563-.015625-.035156-.054687-.097656-.019532-.035156-.054687-.109376-.015625-.023437c-.046875-.089844-.09375-.175781-.140625-.265625l-.011719-.027344-.058594-.101562-.066406-.132813-.023438-.042969-.050781-.097656-.019531-.03125-.070312-.132812v-.003906l-.066407-.128907-.015625-.027343-.058594-.109376-.011718-.023437-.058594-.113281-.011719-.023438c-.074219-.136718-.140625-.269531-.214843-.40625l-.066407-.132812-.015625-.027344-.0625-.117188-.007812-.015624-.140625-.277344-.070313-.128906-.011718-.027344-.0625-.117188-.003907-.011718c-.070312-.140626-.144531-.277344-.214843-.417969l-.074219-.148438-.066407-.128906-.007812-.011719c-.070312-.140625-.140625-.277344-.210938-.417968h-.003906l-.066406-.136719-.007812-.011719c-.09375-.1875-.1875-.371094-.28125-.558594v-.003906l-.070313-.136719v-.003906c-.097656-.1875-.1875-.375-.28125-.5625l-.007813-.007813-.0625-.132812-.003906-.011719c-.09375-.183593-.1875-.375-.28125-.5625v-.003906c-7.488281-15.175781-13.09375-31.214844-16.695312-47.753906-.164063-.742188-.320313-1.484375-.472656-2.230469l-.035157-.15625v-.003906c-.042969-.214844-.085937-.425782-.128906-.636719l-.03125-.160156v-.003907c-.042969-.210937-.085937-.421874-.128906-.632812v-.007812l-.03125-.15625c-.03125-.160157-.0625-.320313-.09375-.480469l-.03125-.15625v-.007813c-.042969-.210937-.082031-.421875-.125-.636718v-.003907l-.03125-.15625v-.003906c-.039063-.210937-.078125-.421875-.117188-.636719l-.003906-.011718-.027344-.148438v-.007812c-.03125-.160157-.0625-.316407-.089843-.480469l-.03125-.15625v-.003907l-.027344-.160156c-.03125-.160156-.058594-.324218-.089844-.480468v-.003907l-.027344-.152343v-.015626l-.027344-.152343c-.03125-.160157-.058593-.316407-.085937-.476563l-.003906-.019531-.023438-.144531-.003906-.007813c-.027344-.160156-.054687-.316406-.082031-.480469v-.007812l-.027344-.148438v-.011718l-.027344-.15625v-.003906c-.039062-.210938-.074218-.421876-.109375-.636719v-.011719l-.027343-.15625c-.027344-.160156-.054688-.320312-.078126-.480469l-.003906-.015625-.023437-.144531-.003907-.011719c-.023437-.160156-.050781-.324218-.074218-.480468l-.003906-.003907-.023438-.152343-.003906-.019532-.019532-.140625-.003906-.015625c-.027344-.160156-.050781-.320312-.074218-.476562l-.003907-.011719-.019531-.140625-.007812-.027344-.019532-.140625-.003906-.011719c-.023438-.15625-.046875-.316406-.070312-.472656l-.007813-.03125-.019531-.128906-.023438-.164062-.003906-.015626c-.015625-.109374-.03125-.214843-.046875-.320312v-.007812l-.023437-.144532-.023438-.164062-.003906-.019532c-.023438-.15625-.046875-.320312-.070313-.476562v-.011719l-.019531-.144531-.003906-.023438-.019532-.136718-.003906-.019532-.023437-.15625c-.015625-.105468-.03125-.210937-.042969-.320312l-.003906-.019531-.019532-.128907-.003906-.039062-.019531-.121094-.003906-.035156c-.015625-.101562-.027344-.207031-.042969-.3125v-.011719l-.019531-.140625-.003907-.03125-.019531-.125-.003906-.03125-.019531-.140625v-.015625c-.015625-.105468-.03125-.210937-.042969-.316406l-.003906-.019531-.019531-.136719-.003907-.03125-.015625-.128906-.003906-.023438-.019531-.152344v-.003906c-.015625-.105468-.03125-.214844-.042969-.320312l-.003906-.023438-.015625-.132812-.003907-.03125-.015624-.128906-.003907-.027344-.042969-.316406v-.003907l-.019531-.152343-.003906-.023438-.015625-.136719-.003906-.023437-.015625-.144532-.003907-.011718c-.011718-.109375-.023437-.214844-.039062-.324219v-.007813l-.019531-.144531-.003907-.03125-.015624-.128906-.003907-.027344-.015625-.140625-.003906-.015625c-.011719-.105469-.023438-.214843-.035156-.316406l-.003906-.027344-.015626-.132812-.003906-.027344-.015625-.128906-.003906-.03125-.015625-.152344c-.011719-.109375-.027344-.214844-.039062-.324219v-.023437l-.015626-.125-.003906-.042969-.015625-.125-.003906-.027344-.035156-.320312v-.003906l-.015625-.148438-.003906-.035156-.015626-.121094-.003906-.035156-.015625-.132813v-.023437c-.011719-.105469-.023437-.210938-.035156-.3125l-.003906-.035156-.011719-.125-.003906-.035157-.015625-.121093-.003907-.039063-.011718-.136719-.003906-.015625c-.011719-.105469-.019532-.210937-.03125-.316406l-.003907-.035156-.011719-.117188-.007812-.050781-.007812-.105469-.007813-.050781-.011719-.113281-.003906-.039063-.015625-.152344v-.03125l-.011719-.121093-.007812-.050781-.011719-.109376-.003906-.046874-.011719-.109376-.015625-.1875-.003906-.011718-.011719-.15625-.003906-.039063-.011719-.113281-.003906-.050781-.011719-.105469-.003906-.050781-.011719-.113281-.003906-.039063c-.007813-.101563-.019531-.207031-.027344-.308594l-.003906-.050781-.011719-.101562-.003906-.054688-.011719-.109375-.003906-.046875-.011719-.121094-.003906-.03125-.011719-.15625-.003906-.019531-.011719-.136719-.003906-.042968-.007813-.113282-.003906-.046875-.015625-.15625c-.007812-.101562-.015625-.210937-.027344-.3125v-.023437l-.011718-.136719-.003907-.03125-.011719-.125v-.035156l-.011718-.132813-.003906-.027344c-.007813-.105468-.015626-.210937-.023438-.316406l-.003906-.027344-.011719-.128906v-.039062l-.011719-.117188-.003906-.042968-.007812-.121094-.003907-.035156c-.007812-.105469-.015625-.207032-.023437-.3125l-.003906-.039063-.007813-.117187-.011719-.152344-.003906-.054688-.011719-.121094v-.03125l-.011719-.15625-.003906-.023437-.007812-.132813-.003906-.042968-.007813-.113282-.003906-.050781-.007813-.109375-.003906-.042968-.011719-.144532v-.011718l-.011719-.160157v-.027343l-.011718-.125v-.046876l-.007813-.113281-.003906-.046875-.007813-.117187-.003906-.035157-.019531-.316406-.003906-.039062-.007813-.113282-.003906-.050781-.007812-.109375v-.050781l-.007813-.117187-.003906-.035157-.011719-.15625v-.023437l-.007812-.132813-.003907-.042969-.007812-.113281v-.050781l-.007813-.105469-.003906-.054687-.007812-.117188v-.035156l-.011719-.15625v-.039062l-.007813-.113282-.003906-.058594-.003906-.097656-.003906-.058594-.007813-.101562v-.054688l-.007813-.132812-.003906-.019531-.007812-.152344-.003906-.050781-.003907-.105469-.003906-.058594-.003906-.097656-.003907-.058594-.003906-.109375-.003906-.042968-.007812-.15625v-.003907l-.007813-.152343-.003906-.050782-.003907-.097656-.003906-.070312-.003906-.089844-.003906-.058594-.003906-.113281-.003907-.042969-.007812-.15625v-.027344l-.007813-.125v-.054687l-.007812-.101563v-.058594l-.007813-.101562v-.054688l-.007812-.121093v-.035157l-.007813-.152343v-.042969l-.007812-.113281v-.050781l-.003906-.109376-.003907-.050781-.003906-.121093-.003906-.03125-.003907-.160157-.007812-.160156v-.035156l-.007812-.117188v-.054687l-.003907-.105469-.003906-.054687-.003906-.101563v-.054687l-.007813-.152344v-.027344l-.003906-.128906-.003906-.058594v-.09375l-.003906-.0625-.003907-.09375v-.066406l-.003906-.105469-.003906-.046875-.003907-.152344-.003906-.042968v-.113282l-.003906-.054687-.003906-.101563v-.058594l-.003906-.105468-.003907-.050782-.003906-.132812v-.023438l-.003906-.15625v-.042968l-.003907-.109375-.003906-.0625v-.09375l-.003906-.0625-.003906-.101563v-.054687c-.003906-.105469-.003906-.203125-.007813-.304688v-.0625l-.003906-.097656v-.0625l-.003906-.097656v-.054688l-.003907-.113281v-.042969l-.003906-.15625v-.035156l-.003906-.121094v-.050781l-.003906-.109375v-.050781l-.003906-.105469v-.054687l-.003907-.113282v-.046875l-.003906-.152343v-.042969l-.003906-.109375v-.160156l-.003907-.0625v-.152344l-.003906-.136719v-.019531l-.003906-.15625v-.214844l-.003906-.097656v-.21875l-.003906-.152344v-.207031l-.003907-.109375v-.371094l-.003906-.15625v-.480469l-.003906-.046875v-1.746094l.003906-.105468v-.679688l.003906-.082031v-.339844l.003907-.089843v-.339844l.003906-.078125v-.164063l.003906-.097656v-.242188l.003906-.097656v-.167968l.003906-.078126v-.09375l.003907-.074218v-.167969l.003906-.097656v-.078125l.003906-.089844v-.171875l.003907-.078125v-.089844l.003906-.078125v-.171875l.003906-.085937v-.082031l.003906-.089844v-.082032l.003906-.085937v-.082031l.003907-.089844v-.082031l.003906-.085938v-.082031l.003906-.085938v-.085937l.003907-.082031.003906-.085938v-.085937l.003906-.082031v-.085938l.003906-.082031.003906-.085938v-.089843l.003907-.078126.003906-.085937v-.085937l.003906-.082032.003907-.085937v-.082031l.003906-.089844.003906-.082032v-.085937l.003906-.082031.003906-.085938v-.082031l.003907-.089844.003906-.078125v-.089844l.003906-.082031.003907-.085937.003906-.082032.003906-.085937v-.082031l.003906-.085938.003906-.082031.007813-.171875v-.082031l.007813-.171875.003906-.082032.003906-.085937.003906-.082031.007813-.171875v-.082031l.003906-.082032.011719-.257812.003906-.078125.003906-.089844.003906-.082031.003907-.085938.003906-.082031.003906-.085937.003907-.082032.003906-.089844.003906-.074218.003906-.09375.003906-.078125.003907-.085938.003906-.082031.003906-.089844.003907-.078125.003906-.09375.003906-.074219.007812-.089843.011719-.246094.003907-.089844.007812-.164062.007812-.082031.003907-.089844.003906-.078125.003906-.089844.003907-.078125.007812-.09375.003906-.074219.003906-.09375.003907-.070312.003906-.09375.007813-.078125.003906-.09375.003906-.074219.003906-.09375.003906-.074219.007813-.097656.003906-.070312.007813-.097657.003906-.070312.003906-.097657.003906-.066406.007813-.101562.003906-.066406.007813-.105469.003906-.0625.003906-.097657.003906-.074218.007813-.097656.003906-.066407.007813-.105469.003906-.0625.007812-.109374.003907-.058594.007812-.097656.003907-.070313.003906-.097656.007812-.070313.007813-.105468.003906-.0625.019531-.273438.003906-.058594.007813-.109375.003906-.058593.007813-.109376.003906-.058593.007812-.128907.003907-.035156.007812-.121094.003907-.050781.011718-.140625v-.023437l.011719-.148438v-.019531c.007813-.105469.015625-.210938.027344-.316406v-.019532c.035156-.441406.070312-.894531.105469-1.339843l.003906-.027344.027344-.308594v-.019531l.011718-.148438.015625-.164062.003907-.035156.011718-.132813.003906-.035156.007813-.128906.003906-.035157.011719-.132812.003906-.039062.011719-.125.003906-.050782.011719-.121094.003906-.039062.011719-.125.003906-.042969.011719-.125.003906-.035156.011719-.128906.003906-.046875.007813-.121094.003906-.042969.011719-.125.007812-.042969.011719-.121093.003906-.050781.011719-.113282.003906-.054687.011719-.113281.003906-.054688.011719-.113281.003906-.050781.011719-.117188.003906-.046875.011719-.117187.007813-.050782.011718-.117187.003906-.046875.011719-.117188.003907-.050781.011718-.117187.007813-.050782.007812-.109375.007813-.0625.011718-.105469.003907-.058593.011719-.109375.007812-.058594.011719-.105469.003906-.058593.011719-.105469.007812-.0625.011719-.105469.003906-.0625.011719-.101562.007812-.0625.011719-.109376.003907-.058593.011718-.105469.007813-.0625.011719-.105469.007812-.058593.011719-.105469.003906-.058594.011719-.109375.007812-.058594.011719-.101562.007813-.066406.011718-.101563.007813-.0625.011719-.105469.003906-.054687.015625-.109375.003906-.058594.011719-.105469.007812-.066406.011719-.097656.007813-.066407.011718-.101562.007813-.058594.011719-.109375.007812-.058593.011719-.101563.007812-.0625.011719-.105469.007812-.058594.011719-.105468.007813-.058594.015625-.109375.003906-.058594.015625-.101562.003906-.0625.023438-.164063.011718-.105468.007813-.058594.011719-.109375.007812-.058594.011719-.105469.007813-.058594.015624-.109374.003907-.050782.015625-.117187.007812-.046875.011719-.117188.007813-.050781.015624-.109375.007813-.058594.011719-.109375.007812-.050781.015625-.113281.003907-.054688.015624-.113281.007813-.050781.015625-.109375.003906-.054688.015625-.113281.007813-.050781.015625-.117188.003906-.046875.019531-.125.003906-.039062.015626-.117188.007812-.050781.015625-.117188.003906-.042968.019531-.125.003907-.039063.019531-.128906.003906-.035156.015625-.128907.007813-.035156.015625-.132812.003906-.03125.019531-.128906.003906-.035157.019532-.128906.003906-.039063.019531-.121093.003907-.042969.019531-.121094.003906-.042968.019531-.125.003906-.039063.019532-.128906.003906-.035157.019531-.125.003907-.039062.019531-.132812.003906-.027344.023437-.144532v-.019531l.023438-.152343.003906-.011719.019532-.144531.003906-.019532.023437-.15625v-.007812l.023438-.160156v-.003907c.246093-1.640625.511719-3.28125.792969-4.90625l.003906-.011719.027344-.152343v-.007813l.027343-.15625.027344-.164062.027344-.160156.003906-.011719.027344-.152344v-.003906l.027343-.15625.003907-.011719.027343-.152344v-.015625l.027344-.140625.003906-.03125.027344-.132812.027344-.164063.003906-.027343.027344-.132813.003906-.027344.023438-.136719.007812-.027343.023438-.136719.003906-.019531.027344-.140625.003906-.019532.023438-.144531.003906-.019531.027344-.140625.003906-.027344.027344-.132812.003906-.027344.023437-.136719.007813-.023437.023437-.136719.007813-.027344.023437-.136718.003907-.023438.027343-.140625.003907-.019531.027343-.140625.003907-.019531.027343-.140626.003907-.027343.027343-.128907.003907-.035156.027343-.128906.003907-.03125.027343-.132812.003907-.027344.027343-.132813.003907-.027343.027343-.136719.003907-.023438.027343-.140625.003907-.019531.03125-.140625.003906-.023438.023437-.132812.007813-.03125.027344-.128906.003906-.035156.027344-.128907.007812-.027343.023438-.136719.007812-.027344.027344-.132813.003906-.027343.027344-.136719.007812-.023438.027344-.140624.003906-.019532.027344-.140625.003906-.023437.027344-.132813.007812-.027343.027344-.132813.003906-.03125.027344-.132813.007813-.027343.027343-.132813.003907-.027344.03125-.136718.003906-.023438.027344-.136718.003906-.023438.03125-.144531.003906-.011719.03125-.148438.003907-.011718.03125-.152344v-.007812l.03125-.148438.003906-.015625.035156-.148437v-.007813l.03125-.152344.003906-.011719.03125-.148437.003906-.011719.03125-.144531.003907-.015625.066406-.3125v-.007812l.035156-.148438v-.011719l.03125-.144531.007813-.019531.03125-.148438v-.007812l.035156-.15625v-.003907l.070312-.316406.003907-.003906c.714843-3.207031 1.503906-6.386719 2.363281-9.535156.230469-.839844.464844-1.679688.707031-2.511719v-.003906l.042969-.15625.046875-.15625c9.992187-34.511719 28.699219-65.871094 54.320313-91.0625 4.570312-4.519531 4.609374-11.886719.085937-16.453125-2.179687-2.207032-5.160156-3.449219-8.265625-3.449219zm0 0" fill="#6b3062"/><path d="m281.707031 25.109375c-6.425781.007813-11.628906 5.226563-11.621093 11.652344.007812 5.882812 4.40625 10.839843 10.25 11.539062 43.625 5.066407 84.535156 23.789063 116.886718 53.492188l.007813.007812c.191406.175781.378906.347657.570312.523438l.007813.007812c.082031.074219.15625.144531.238281.21875l.007813.007813.078124.074218.003907.003907c.082031.074219.160156.148437.242187.222656l.003906.003906c.082032.078125.160157.152344.242188.226563l.003906.003906c.109375.101562.214844.199219.324219.304688h.003906c.082031.078124.15625.148437.238281.226562l.007813.007812c.109375.101563.210937.199219.320313.300782l.007812.007812c.109375.101563.210938.199219.320312.304688h.003907c.082031.078125.160156.152344.242187.230468v.003907c.109375.101562.214844.203125.324219.308593.082031.074219.164063.152344.242187.230469h.003907c.296875.285157.589843.570313.886719.855469l.003906.003906.226562.222656.019532.019532c.101562.097656.207031.199218.308593.300781l.011719.011719.226562.21875.011719.015625.074219.070312.007812.007813c.074219.074218.15625.152344.230469.226562l.007813.007813.222656.21875.089844.089843.011718.007813.152344.152344.066406.070312.027344.023438.457032.457031.007812.003906.070312.074219.011719.011719c.074219.074218.148438.148437.222657.222656l.40625.40625.144531.148438.101562.101562c.074219.074219.144531.144531.21875.21875l.019531.019531.214844.222657.015625.011718.070313.074219.007812.007813.21875.222656.023438.027344.070312.070312.132813.136719.03125.027343.058593.0625.03125.03125.113282.117188.085937.085938.027344.03125.070313.070312.132812.136719.027344.027343.0625.066407.023437.023437.203125.210938.027344.03125.078125.078125.121094.125.03125.03125.054687.058593.039063.039063c.0625.066406.128906.136719.195312.203125l.023438.027344.0625.066406.027343.027344.113282.117187.023437.027344.0625.066406.03125.027344.191407.203125.039062.039062.050781.058594.046875.046875.078125.085938.046875.050781.097656.097656.046876.050782.082031.089843.042969.042969.046874.050781.050782.054688.046875.046875.074219.082031.054687.054687.042969.046876.050781.054687.042969.046875.082031.085938.042969.046874.054687.058594.039063.042969.0625.066406.058594.058594.058593.066406.042969.042969.050781.058594.046875.046875.078125.085937.042969.046875.054688.054688.039062.042969.066406.074218.046875.050782.0625.070312.046875.046875.050782.054687.042968.046876.082032.085937.042968.050781.046875.050782.050781.050781.046876.054687.066406.070313.054687.0625.046875.050781.050782.054688.042968.042968.082032.09375.039062.039063.054688.058593.042968.046876.058594.066406.042969.046875.074219.082031.039062.042969.058594.0625.105468.117187.054688.0625.050781.054688.09375.101562.054688.0625.070312.074219.039063.042969.054687.0625.042969.046875.082031.089843.03125.035157.058594.066406.039063.042969.058593.066406.046875.050781.070313.078125.042969.046875.054687.0625.035156.039063.085938.097656.027343.03125.066407.070312.035156.042969.0625.070313.03125.03125.085937.09375.035157.042968.058593.066407.035157.039062.085937.097657.019532.023437.070312.078125.039062.042969.0625.070312.027344.03125.089844.097657.03125.035156.0625.074218.03125.03125.089844.105469.015625.015625.082031.09375.019531.023438.078125.089844.019532.019531.089843.101562.027344.035157.0625.070312.035156.042969.085938.097656.015625.015625.078125.089844.027343.03125.074219.082031.019531.027344.089844.101562.027344.03125.066406.074219.027344.035156.09375.101563.007812.011719.085938.097656.023438.03125.070312.078125.023438.027343.089843.105469.019531.023438.078126.085937.023437.027344.183594.210938.023437.03125.082032.09375.011718.011718.09375.109375.015625.019531.078125.089844.023438.027344.082031.097656.015625.015625.085938.105469.019531.019531.078125.09375.019531.019531.09375.109376.007813.011718.085937.097656.019531.027344.183594.214844.023438.027344.074218.089844.019532.023437.089843.101563.023438.03125.074219.082031.019531.023437.085937.105469.007813.007813.089843.109374.019532.023438.078125.089844.019531.023437.089844.109375.015625.015625.074219.09375.027343.027344.179688.214844.023437.03125.074219.085937.019531.023438.089844.109375.011719.015625.082031.09375.019531.027344.085938.101562.007812.007812.09375.113282.011719.019531.097656.117187.09375.109376.007813.011718.082031.097656.023438.027344c.0625.074219.121093.148438.183593.222656l.007813.011719.089844.109375.007812.011719.191406.230469.011719.011718.09375.117188.097656.117188.003907.007812.089843.109375.007813.011719.191406.234375.011719.011719c.0625.078124.125.15625.1875.234374l.007812.011719.089844.105469.007813.011719c.0625.078125.125.15625.1875.234375l.011718.011718.085938.109376.007812.007812.097656.121094.09375.117187.007813.007813c.0625.082031.125.160156.1875.238281l.007813.007813.191406.242187h.003906l.09375.121094.003906.003906c.164063.203125.320313.40625.484375.609375v.003906l.195313.242188v.003906c.101562.125.191406.242188.289062.367188l.003906.003906c13.957032 17.777344 24.9375 37.703125 32.503907 59 .074219.207031.15625.414062.238281.613281.058594.199219.121094.394531.1875.59375.140625.402344.277344.804687.417969 1.210937 2.050781 6.089844 8.652343 9.359376 14.742187 7.308594 6.089844-2.054687 9.363282-8.65625 7.308594-14.746094-.007812-.023437-.015625-.050781-.027344-.078124l-.460937-1.34375c-.082031-.234376-.167969-.460938-.261719-.683594-.0625-.222656-.132812-.441406-.210938-.660156-29.414062-82.851563-104.769531-142.929688-191.976562-153.054688-.449219-.050781-.902344-.078125-1.355469-.078125zm0 0" fill="#6b3062"/><path d="m128 23.273438h46.546875c6.425781 0 11.632813 5.210937 11.632813 11.636718 0 6.425782-5.207032 11.636719-11.632813 11.636719h-46.546875c-6.425781 0-11.636719-5.210937-11.636719-11.636719 0-6.429687 5.210938-11.636718 11.636719-11.636718zm0 0" fill="#dca7be"/><path d="m483.179688 154.167969c-6.429688.007812-11.636719 5.226562-11.628907 11.65625 0 1.464843.277344 2.917969.816407 4.28125 10.859374 27.332031 16.410156 56.484375 16.359374 85.894531 0 128.324219-104.402343 232.726562-232.726562 232.726562-75.933594-.066406-147.078125-37.101562-190.683594-99.265624-3.6875-5.265626-10.941406-6.546876-16.207031-2.859376-5.265625 3.683594-6.542969 10.941407-2.859375 16.207032.003906.003906.007812.007812.011719.015625 5.417969 7.722656 11.257812 15.144531 17.492187 22.230469l.007813.007812c.207031.234375.410156.464844.621093.699219v.003906c.132813.148437.257813.289063.390626.4375l.003906.003906c.078125.085938.152344.167969.230468.257813l.007813.011718.148437.164063.003907.003906c.210937.234375.417969.464844.625.699219l.007812.003906c.128907.144532.257813.289063.390625.433594.210938.234375.421875.464844.632813.699219h.003906c.128906.140625.261719.285156.390625.425781l.007812.011719c.210938.230469.417969.453125.632813.6875l.007813.007812c.476562.519531.953124 1.027344 1.433593 1.542969l.007813.007812c.214844.226563.425781.449219.640625.679688l.007812.007812.148438.152344.011719.015625c.082031.085938.15625.164063.238281.25l.003906.007813c.136719.140625.265625.277344.398437.417968l.007813.007813c.214844.222656.425781.445313.640625.667969l.019531.019531c.214844.222656.425781.441406.640625.664063l.011719.011718.148437.15625.007813.007813c.082031.082031.164063.164062.246094.25.003906.003906-.003907-.003907 0 0 .136719.140625.269531.277343.40625.414062l.007812.011719.242188.246094.003906.003906.160156.164062c.007813.003907-.003906-.003906.003907.003907l.242187.246093.160156.160157.011719.015625.238281.242187.015625.011719.238282.242188.007812.011718.148438.144532.019531.019531c.078125.078125.160156.164062.234375.238281l.179687.179688c.078125.078124.15625.15625.238281.234374l.015626.019532.148437.148437.007813.011719.082031.078125c.007812.007813 0 0 .003906.003906l.144531.144531.035156.03125c.074219.078126.152344.152344.226563.230469l.027344.023438.15625.15625c.074219.074219.15625.15625.234375.230469l.277344.277343.136718.132813.03125.027344.230469.230468.023437.019532.15625.15625c.082032.078124.160157.15625.242188.234374l.015625.015626.140625.136718.023438.023438c.078124.074218.15625.152344.234374.226562l.027344.027344.136719.132812.019531.023438.074219.070312.039063.035157.113281.109375.042969.042968.230468.222657.023438.023437.128906.121094.035156.035156.074219.070313.007813.007812.144531.140625.035156.03125.136719.132813.019531.015625.097656.097656.136719.128906.027344.027344c.078125.074219.15625.148438.234375.222656l.03125.03125.132812.125.023438.023438c.078125.074218.160156.152344.238281.226562l.023438.023438.140624.128906.023438.027344.074219.066406.035156.03125.128906.121094.027344.03125.140625.128906.019531.019531.078125.070313.027344.03125.117188.109375.054687.046875.058594.058594.09375.085937.0625.0625.050781.046875.105469.097656.050781.046875.066406.0625.035156.03125.125.117188.039063.035156.125.117187.027344.027344.078125.070313.035156.03125.117188.113281.042968.039062.113282.105469.046874.042969.066407.0625.046875.042969.105468.097656.050782.046875.066406.0625.050781.046875.105469.09375.050781.050781.109375.097656.042969.039063.074219.070313.042968.039062.109376.101562.046874.039063.085938.082031.074219.066406.0625.058594.058593.054688.09375.085937.058594.054688.0625.054687.097656.085938.054688.054687.0625.054688.097656.089843.050782.046876.070312.0625.152344.140624.054687.046876.082031.074218.078126.070313.058593.054687.058594.050782.152344.140624.0625.054688.097656.085938.0625.058593.058594.054688.085937.078125.070313.0625.058593.050781.097657.089844.058593.050781.0625.054688.066407.058593.089843.082031.058594.050782.074219.070312.074219.0625.074218.070313.050782.042969.101562.089843.058594.050781.070312.0625.078126.070313.070312.0625.058594.050781.101562.089844.046875.042969.085938.074219.050781.046874.097656.085938.050782.042969.097656.085937.054687.050782.074219.066406.050781.042968.105469.09375.050781.042969.085938.074219.140625.125.058594.050781.097656.089844.058594.046875.066406.0625.074218.0625.082032.074219.054687.042969.09375.082031.132813.117187.058594.050782.097656.085937.0625.054687.0625.050782.097656.085937.050781.046875.066407.058594.097656.082031.0625.054688.058594.050781.09375.082031.066406.058594.0625.050781.097656.085938.058594.046875.070312.0625.046875.039062.105469.09375.058594.046875.074218.066406.085938.070313.0625.054687.066406.054688.09375.082031.058594.050781.070312.0625.082032.066407.070312.0625.0625.050781.089844.078125.070312.058594.0625.054687.082032.070313.078125.0625.058593.050781.09375.078125.066407.058594.0625.050781.074219.0625.085937.074219.125.109375.097656.078125.0625.054687.0625.050782.101563.085937.058594.050781.0625.050782.089843.074218.070313.0625.0625.050782.152344.128906.074218.0625.058594.046875.101562.085937.058594.046875.070313.0625.089843.074219.125.101562.097657.082032.132812.109375.085938.070312.070312.058594.066407.054687.054687.046876.113281.089843.042969.039063.117187.097656.050782.039062.066406.058594.066406.050782.09375.078124.066406.054688.058594.050781.101563.078125.066406.058594.0625.050781.09375.074219.0625.054688.066406.050781.101563.082031.058594.050781.0625.050781.101562.082032.0625.050781.066406.054687.074219.0625.082031.066407.066406.054687.0625.046875.101563.085938.054687.042969.089844.070312.066406.058594.078126.0625.0625.046875.101562.082031.058594.050781.066406.050781.09375.078126.070312.054687.058594.046875.085938.070312.078125.0625.066406.050782.074219.0625.089844.070312.0625.050782.070312.054687.089844.070313.070312.058593.054688.042969.105468.085938.0625.046874.066407.054688.09375.074219.070312.054687.0625.050782.101563.082031.058594.046875.074218.054687.15625.125.066406.054688.074219.058593.082031.066407.074219.054687.058594.046875.105469.082031.136718.109376.074219.058593.082031.0625.058594.046875.105469.082032.058594.046874.074219.058594.074218.054688.085938.070312.0625.046875.101562.082031.058594.042969.070312.054688.0625.050781.105469.078125.058594.046875.074219.058594.085937.066406.078125.0625.050782.039062.113281.089844.054687.039063.082032.0625.070312.054687.082031.066406.066407.046876.09375.074218.066406.050782.074218.058593.0625.046875.101563.078125.058594.046875.078125.058594.089844.066406.070312.054688.058594.042968.105468.085938.058594.042969.085938.0625.058594.046875.097656.074218.054687.042969.109375.082031.058594.046876.070312.050781.074219.054687.089844.070313.140625.105469.085938.066406.074218.054687.058594.046875.105469.078125.132812.101563.097657.070312.0625.050782.070312.050781.101562.078125.058594.042968.078125.058594.082031.0625.078126.058594.070312.050781.0625.046875.105469.078125.058593.046875.066407.046875.105469.078125.058593.046875.082031.058594.082032.0625.074218.054687.066407.046876.105469.082031.058593.042969.078125.054687.070313.054687.09375.070313.054687.039063.109375.082031.058594.042969.078125.058593.054688.039063.113281.082031.054687.039063.101563.074218.058593.046875.085938.058594.054688.042969.113281.082031.058593.042969.078126.054687.078124.0625.085938.058594.058594.042969.109375.082031.058593.042969.082032.058594.046875.035156.113281.082031.058594.042969.101562.074218.0625.042969.082032.058594.058593.042969.109375.078125.058594.042969.085938.066406.066406.046875.09375.066406.054687.039063.113281.082031.136719.097656.066407.050781.101562.070313.050781.039062.121094.085938.039063.027343.09375.066407.050781.039062.117187.082031.050782.035157.09375.066406.078124.054687.136719.097657.109375.082031.0625.042969.15625.109375.085938.0625.0625.042968.113281.082032.050781.03125.085938.0625.054687.039062.117188.082032.046875.035156.105468.074218.0625.042969.089844.0625.050782.035157.113281.082031.0625.042969.082031.058593.070312.046875.097657.070313.050781.035156.121094.082031.042968.035156.097657.066407.042969.027343.125.089844.042968.027344.125.089844.039063.023437.101562.074219.046875.03125.117188.082031.058594.039063.089843.0625.0625.042968.097657.066407.054687.039062.117187.082031.050782.035157.085937.058593.074219.050782.09375.066406.058594.039062.113281.078126.140625.09375.054688.039062.113281.078125.058593.039063.089844.0625.078125.050781.078125.054687.066406.046875.109376.074219.0625.039062.070312.050782.097656.066406.074219.050781.066406.042969.089844.0625.085937.058594.066407.042968.089843.0625.082032.054688.074218.050781.066407.042969.101562.070312.074219.050782.058594.039062.113281.074219.066406.042969.070313.050781.097656.066406.078125.050781.0625.042969.109375.070313.0625.042968.078125.054688.054687.035156.113282.074219.066406.046875.089844.058594.078125.050781.078125.054687.066406.039063.109375.074219.0625.042968.246094.164063.066406.042969.109375.070312.0625.042969.074219.050781.101562.0625.070313.046875.070312.050781.097656.0625.074219.046876.070313.046874.066406.042969.113281.074219.0625.039062.082031.058594.089844.054688.257813.171875.054687.035156.085938.054687.074218.046876.09375.0625.0625.039062.101563.066406.074219.046875.078125.050781.0625.042969.113281.074219.0625.039062.082031.050782.164063.109375.066406.039062.113281.074219.0625.039062.078125.050782.09375.058594.078125.050781.070313.046875.109375.070312.0625.039063.078125.050781.0625.039062.109375.070313.066406.042969.171875.109375.082031.050781.058594.039062.117187.074219.0625.039063.085938.054687.078125.050781.085937.054688.066407.039062.113281.074219.054688.03125.09375.0625.054687.035157.117187.070312.054688.035156.117188.074219.058593.039063.082031.050781.0625.035156.113282.074219.058594.035156.105468.066406.0625.042969.089844.054687.066406.039063.113282.074219.058593.035156.089844.054688.066406.039062.109375.070312.046875.03125.125.074219.058594.035157.085937.054687.054688.035156.121094.074219.058594.035156.101562.066406.070312.039063.085938.054687.058594.035157.117187.074219.0625.039062.085938.050781.175781.105469.058594.039062.117187.070313.058594.039063.089844.054687.046875.027344.125.074219.058594.035156.101562.0625.074219.046875.082031.046875.066406.042968.113282.070313.0625.035156.09375.054688.070312.046875.097656.054687.058594.039063.175781.105468.089844.054688.066406.039062.109375.066407.058594.035156.125.074219.042969.027344.09375.054687.058593.035156.121094.074219.054688.03125.101562.058594.074219.046875.09375.054687.175781.105469.0625.035156.085938.054688.070312.039062.105469.0625.058594.035157.121093.070312.058594.039062.082032.046876.0625.039062.121093.070312.164063.09375.066406.039063.09375.058594.054688.027343.121093.074219.0625.035157.089844.054687.070313.039063.105468.0625.058594.035156.121094.070312.054687.03125.089844.054688.054687.03125.121094.070312.0625.035156.101563.058594.074219.042969.089843.054687.058594.03125.121094.070313.0625.035156.09375.054688.070312.042969.097657.054687.0625.035156.117187.070313.0625.035156.082031.046875.09375.054687.085938.046876.066406.039062.117188.066406.058593.035156.089844.050782.054687.03125.125.070312.058594.035156.105469.058594.066406.039063.09375.054687.0625.035156.121094.066407.0625.039062.078125.042969.09375.050781.089844.050781.0625.035157.117187.066406.066407.039063.078124.042968.078126.046875.105468.058594.066406.039063.089844.046874.089844.050782.082031.046875.0625.035156.117188.066406.074219.039063.066406.039062.113281.0625.074219.042969.070312.039063.113282.0625.070312.039062.078125.042969.0625.035156.117187.0625.070313.039063.09375.054687.082031.042969.082032.046875.070312.039062.113281.0625.066407.035157.089843.050781.082031.046875.09375.050781.0625.035156.121094.066407.0625.035156.085938.046875.082031.042969.097656.054687.066407.035156.117187.066407.0625.03125.082031.046874.066406.035157.117188.0625.066406.039062.082032.042969.105468.058594.074219.039062.066406.039063.125.066406.058594.03125.09375.050781.070313.039063.101562.054687.066406.035156.121094.066407.0625.03125.089844.046875.054687.03125.128907.070312.054687.027344.101563.054688.082031.046874.089843.046876.058594.03125.128906.066406.054688.03125.113281.058594.035157.019531.132812.070312.050781.027344.132813.070313.042968.023437.109376.058594.046874.023437.128907.066406.058593.035157.105469.054687.074219.039063.097656.050781.054688.027344.125.066406.0625.03125.101562.058594.0625.03125.105469.054687.0625.03125.128906.070313.046875.023437.109375.058594.046875.019531.128906.070313.058594.027343.117188.0625.070312.039063.082032.042969.066406.03125.121094.0625.0625.035156.105468.054688.070313.035156.097656.050781.0625.03125.125.066406.058594.027344.09375.046875.078125.042969.164062.082031.109375.058594.082031.039062.082032.042969.0625.03125.125.066406.335937.167969.058594.03125.128906.066406.058594.03125.09375.046875.082031.039063.097656.050781.066407.035156.121093.058594.066407.035156.089843.042969.054688.027344.125.066406.066406.03125.105469.050781.078125.039063.085938.046875.066406.03125.121094.0625.066406.03125.179687.089843.089844.042969.53125.265625.058594.03125.132812.0625.050781.027344.09375.042969.0625.035156.125.058594.066407.03125.097656.050781.082031.039062.15625.078126.125.058593.066406.035157.085938.039062.085938.042969.097656.046875.066406.035156.117188.054688.074218.039062.078125.035156.078125.039063.113282.054687.070312.035156.089844.042969.097656.046875.148438.074219.117187.054687.082031.039063.070313.035156.101562.046875.089844.042969.070313.035156.121093.058594.070313.03125.171875.085937.09375.042969.070312.035157.097657.042968.089843.042969.085938.042969.066406.03125.121094.058594.074219.035156.085937.039062.09375.042969.085937.042969.074219.035156.121094.054688.0625.03125.089844.042968.085937.039063.101563.050781.066406.03125.117187.050781.074219.035157.082031.039062.070313.03125.121094.058594.070312.03125.097657.046875.082031.039062.09375.042969.066406.03125.125.058594.066406.03125.171875.078125.105469.050781.0625.027344.128906.058594.058594.027343.097656.046875.058594.027344.125.058594.066406.027344.109375.050781.074219.035156.097656.042969.058594.027344.132813.0625.058593.027343.097657.042969.085937.039062.097656.046876.066407.027343.121093.054688.078125.035156.074219.035156.078125.035157.113281.050781.074219.035156.089844.039063.097656.046874.085938.035157.066406.03125.128906.058593.0625.027344.097656.042969.085938.039063.09375.042968.070312.03125.121094.054688.070312.03125.085938.039062.09375.039063.09375.042969.074219.035156.125.054687.058593.023438.09375.042969.0625.027343.128907.058594.0625.027344.195312.085937.085938.039063.070312.027343.125.058594.070313.027344.078125.035156.117187.050782.070313.03125.082031.039062.082031.035156.113281.046875.175782.078125.09375.039063.078125.035156.070312.03125.125.050781.070313.03125.074218.035156.121094.050782.078125.035156.074219.03125.109375.046875.085937.039063.074219.03125.121094.050781.074219.03125.082031.035156.070313.03125.121093.050781.070313.03125.09375.039063.097656.042969.089844.035156.066406.03125.125.050781.074219.03125.191406.082031.074219.03125.082031.035156.117187.050782.074219.03125.082031.035156.105469.042969.089844.039062.074219.03125.09375.039063.101562.042968.074219.03125.078125.03125.117188.050782.078124.03125.085938.035156.105469.046875.078125.03125.082031.035156.121094.046875.074219.03125.078124.035156.101563.039063.09375.039063.070313.03125.101562.042968.101562.039063.070313.03125.109375.042969.089844.039062.082031.03125.199219.082031.0625.027344.085937.035156.113281.046875.085938.035156.066406.023438.125.054688.15625.0625.109375.042968.085938.035156.082031.03125.070312.03125.121094.046876.074219.03125.195313.078124.082031.03125.085937.035157.109375.046875.078125.03125.179688.070312.09375.039063.074218.027343.125.050782.074219.03125.082031.03125.101563.039062.09375.039063.074219.027343.125.050782.066406.027344.082031.03125.09375.039062.105469.039062.074219.03125.089843.035157.105469.039062.085938.035157.070312.027343.128907.050781.070312.027344.085938.035156.09375.035157.097656.039062.074218.027344.128907.050781.066406.023438.089844.035156.066406.027344.136719.050781.058594.023437.113281.046876.078125.027343.101562.039063.0625.023437.132813.050781.066406.027344.101563.039063.074218.027343.113282.042969.066406.027344.128906.046875.074219.027344.078125.03125.09375.035156.105468.039062.074219.03125.101563.039063.089844.03125.09375.039063.066406.023437.128906.046875.074219.027344.1875.070312.089843.035156.074219.027344.128907.050782.070312.023437.085938.035156.109374.039063.085938.03125.078125.03125.109375.039062.085938.03125.082031.03125.074219.027344.128906.046875.066406.027344.109375.039062.085937.03125.09375.035157.074219.027343.128907.046875.066406.023438.085937.03125.109375.042968.089844.03125.074219.027344.105469.039063.09375.03125.082031.03125.101562.039062.097657.03125.078124.03125.097657.035157.089843.03125.097657.035156.199219.070312.066406.027344.09375.03125.101562.039062.09375.03125.070313.027344.132812.046875.0625.023438.101563.035156.058594.019531.132812.046875.070312.027344.117188.039063.074219.027343.097656.035157.070313.023437.199218.070313.097656.035156.09375.03125.097657.035156.070312.027344.199219.066406.09375.035156.085938.027344.109374.039062.074219.027344.132813.046875.152344.050781.070312.027344.128906.042969.074219.023437.089844.035157.113281.035156.082031.03125.074219.023437.199219.070313.09375.03125.097656.035156.09375.03125.078125.027344.199219.066406.085937.03125.085938.027344.117187.039063.074219.027343.085938.027344.199218.066406.070313.027344.132812.042969.070313.023437.097656.035157.082031.027343.113281.035157.066407.023437.136719.046875.066406.019531.089844.03125.082031.027344.121093.039063.175782.058593.089844.03125.097656.03125.066406.023438.132812.042969.070313.023437.101563.035156.085937.027344.105469.035156.066406.019531.140625.046876.054687.019531.113282.035156.0625.019531.128906.042969.066406.019531.121094.039063.175781.058593.066407.019532.132812.046875.066406.019531.117188.039062.078125.023438.101562.03125.070313.023438.136718.042968.0625.023438.105469.03125.070313.023437.1875.058594.136718.042969.066407.023437.097656.03125.066406.019531.132813.042969.074218.023438.109376.03125.082031.027343.101562.03125.066407.023438.136718.042969.070313.019531.089843.03125.101563.03125.097656.03125.074219.023438.128906.039062.078125.023438.085938.027343.074219.023438.128906.039062.070312.019531.113282.035157.085937.027343.097656.03125.066407.019532.136718.042968.070313.019532.105469.035156.082031.023438.105469.03125.070312.023437.132812.039063.070313.023437.097656.027344.074219.023437.128906.039063.0625.019531.144532.042969.050781.015625.109375.03125.0625.019531.140625.042969.0625.019531.113281.03125.085938.027344.101562.03125.070312.019531.136719.039062.066407.023438.101562.027344.078125.023437.121094.035157.0625.019531.144531.042969.164062.046874.058594.019532.144532.042968.058593.015626.128907.039062.066406.019531.113281.03125.058594.019531.210937.058594.109375.03125.066407.019532.128906.039062.058594.015625.144531.042969.058593.015625.164063.046875.144531.042968.0625.019532.136719.035156.058594.019531.117187.03125.058594.019531.136719.039063.070312.019531.109375.03125.078125.019532.113281.035156.066407.015625.140625.042969.058594.015624.109374.03125.074219.019532.128907.035156.0625.015625.144531.042969.164062.046875.058594.015625.140625.039062.066406.015625.125.035157.066406.019531.117188.03125.0625.019531.144531.039062.054688.015626.117187.03125.066406.015624.132813.039063.054687.015625.148438.039062.054688.015626.113281.03125.058593.015624.140626.035157.070312.019531.121094.035156.070312.019532.117188.03125.054687.011718.148438.042969.175781.046875.070312.019531.125.03125.058594.015625.148438.039063.058594.015625.113281.03125.050781.011718.144531.039063.066407.019531.140624.035156.054688.015626.113281.027343.066407.019531.140624.035157.058594.015625.128906.035156.054688.015625.132812.03125.054688.015625.148438.039062.058593.015626.117188.027343.054687.015625.140625.035156.066407.019532.148437.035156.042969.011719.125.03125.050781.015625.148437.039062.054688.011719.140625.035156.050781.015625.136719.03125.046875.011719.15625.042969.046875.011718.132813.03125.039062.011719.152344.035157.054687.015624.152344.039063.042969.007813.132812.035156.203125.050781.050781.011719.136719.035156.066407.015625.117187.027344.054687.015625.148438.035156.234375.058594.144531.035156.058594.015625.144531.035156.0625.011719.113281.027344.050782.015625.152344.035156.058593.015625.140625.03125.058594.015625.121094.03125.054687.011719.148438.035156.058593.015625.132813.03125.050781.011719.132813.03125.058593.011718.148438.035157.050781.015625.132813.03125.042968.007812.152344.035156.058594.015626.148438.035156.050781.011718.121093.027344.054688.011719.148438.035156.058593.015625.128907.027344.074218.019531.109375.023438.070313.015625.144531.035156.058594.011719.121093.027343.050782.011719.148437.035157.050781.011718.15625.035156.050782.011719.125.027344.203125.046875.058593.011719.136719.03125.0625.015625.117188.027344.058593.011718.148438.035156.058594.011719.121094.027344.070312.015625.132812.027344.054688.015625.152344.03125.054687.011719.125.027343.042969.011719.152344.03125.0625.015625.140625.03125.0625.011719.113281.027344.0625.011718.148438.03125.058593.015625.132813.027344.050781.011719.132813.027344.0625.015624.148437.03125.0625.011719.117187.027344.050782.007813.148437.03125.0625.015624.152344.03125.046875.011719.113281.023438.070313.015625.140625.027344.066406.015624.121094.023438.078125.015625.117187.027344.0625.011719.148438.03125.0625.011718.109375.023438.078125.015625.121093.027343.070313.011719.144531.03125.066406.011719.101563.023438.070313.011718.144531.03125.0625.011719.128906.027344.074219.015625.117187.023437.054688.011719.148437.03125.066406.011719.125.023437.195313.039063.0625.011719c.046875.011718.097656.019531.148437.03125l.175782.035156.050781.007812.152344.03125.390625.078125.050781.007813.152344.03125.058593.011718.144532.027344.035156.007813.144531.027343.058594.011719.152344.027344.050781.011719.1875.035156.144531.027344.054688.011718.15625.03125.046875.007813.128906.023437.050781.011719.15625.027344.050781.011719.15625.027344.035157.007812.140625.027344.054687.007812.15625.03125.054688.007813.125.023437.058593.011719.144532.027344.054687.007812.15625.03125.054688.007813.121093.023437.050782.007813.152344.027344.0625.011718.148437.027344.046875.007812.132812.023438.050782.011719.15625.027343.058594.011719.121093.019531.074219.015626.128906.019531.0625.011719.148438.027343.058594.011719.125.019531.046874.007813.152344.027344.0625.011718.152344.027344.046875.007812.128906.023438.054688.007812.15625.027344.050781.007813.144531.027343.1875.03125.054688.007813.160156.027344.1875.03125.035156.007812.160157.027344.054687.007813.160156.027343.171875.03125.054688.007813.152344.023437.058593.011719.132813.019531.070312.011719.128906.023438.054688.007812.15625.027344.050781.007812.136719.023438.039062.003906.15625.027344.058594.007812.15625.027344.050782.007812.128906.019532.046875.007812.160156.027344.054687.007812.203126.03125.128906.019532.054687.007812.15625.027344.054688.007812.140625.023438.039062.003906.15625.027344.050782.007812.160156.023438.046875.007812.136719.019532.039062.007812.15625.023438.066406.011718.148438.023438.054687.007812.125.019532.054688.007812.15625.023438.054687.007812.160156.023438.015626.003906.160156.023438.050781.007812.164063.023438.035156.003906.160156.023437.023438.003907.167968.027343.050782.003907.164062.027343.035156.003907.148438.023437.035156.003906.171875.023438.039063.007812.167968.023438.027344.003906.152344.019531.046875.007813.167969.023437.03125.007813c.050781.003906.117187.015625.167968.023437h.015625l.175781.027344.039063.003906.167969.023438.042968.007812.144532.019532.039062.003906.164063.023437.046875.007813.171875.023437h.015625l.164062.023438.035156.003906.171876.023437.039062.007813.160156.019531.019532.003906.175781.023438.039062.003906.167969.023438.039062.003906.160157.023438.019531.003906.175781.023437.039063.003907.175781.023437h.015625l.164062.023437.039063.003907.167969.023437.042968.003906.164063.023438h.019531l.164063.023438.046875.003906.164062.019531.046875.007813.148438.019531.027343.003906.175782.019531.035156.007813.179688.019531.011718.003906.167969.019532.035156.003906.171875.023437.035156.003907.179688.019531.015625.003906.160156.019531.042969.003906.167969.019532.042969.007812.15625.015625.023437.003907.171875.019531.042969.007812.167969.019531.039062.003907.148438.019531.039062.003906.167969.019532.042969.003906.171874.019531.03125.003906.148438.019531.042969.003907.164062.019531.054688.003906.148437.019532h.03125l.160156.019531.054688.007812.160156.015625.046875.007813.136719.015625.046875.003906.160156.019531.054688.003907.164062.019531h.035157l.148437.019531.042969.003906.164062.015625.054688.007813.15625.015625.027344.003906.15625.015625.050781.007812.164062.015626.042969.003906.144531.015625.042969.003906.160156.019531.054688.003906.164062.015626.042969.003906.136719.015625.050781.003906c.050781.007813.109375.011719.15625.015625l.058594.007812.195312.019532.144531.015625.054688.003906.164062.015625.050782.007812.136718.011719.046876.003907.160156.015624.046875.007813.167969.015625.042968.003906.144532.011719.039062.003906.167969.015625.050781.007813.167969.015625h.023437l.164063.015625.03125.003906.175781.015625.035156.003906.167969.015625h.019531l.175782.019531.039062.003907.171875.015625h.035156l.160157.015625h.027343l.171875.015625.050782.007812.167968.011719.027344.003906.160156.015625h.035156l.214844.019532.175782.015624h.003906l.175781.015626.042969.003906c.050781.003906.121094.011718.171875.015625h.035156l.160156.015625h.027344l.167969.015625.050781.003906.171875.015625h.027344l.160156.015625h.035156l.214844.019531.175781.011719.015625.003906.167969.011719.035156.003906.175781.011719.039063.003906.160156.011719.023438.003906.171875.011719.050781.003906.167969.015625h.035156l.152344.011719.039062.003906.171875.011719.039063.003906.175781.011719.027344.003906.164062.011719.03125.003906.171875.011719.042969.003906c.121094.007813.242187.015625.363281.023438l.039063.003906.175781.011719h.027344l.167968.011718.023438.003907.179688.011719h.035156l.179687.011718.023438.003906.167969.011719h.027343l.179688.011719.035156.003906c.117187.007813.25.015625.367187.023438h.035157l.183593.011718.019532.003907.183594.011719h.007812l.1875.011718h.027344l.1875.011719h.019531l.171875.011719h.023438l.183593.011718.03125.003907.1875.007812.179688.011719.039062.003906.175781.007813.03125.003906.175782.007813h.011718l.183594.011718h.035156l.175782.011719h.039062l.15625.011719h.03125l.175782.007812.042968.003906.175782.007813h.023437l.15625.007813.046875.003906.171875.007812.039063.003906.167968.007813h.015625l.179688.007813.039062.003906.175781.007812.035157.003906c.058593 0 .109375.003907.167969.007813h.015624l.179688.007813.046875.003906.171875.007812h.027344l.15625.007813h.046875l.171875.007812.039062.003907c.121094.003906.242188.007812.363282.015624h.039062c.050781.003907.121094.003907.171875.007813h.042969l.160156.007813h.027344l.175781.007812.042969.003906.175781.003906.027344.003907.15625.003906.042969.003906.171874.003907.042969.003906.175781.003906.023438.003906.164062.003906h.039063c.050781.003907.125.007813.175781.007813h.039063l.167969.007813h.015624l.179688.007812h.042969l.175781.003906.03125.003906.164062.003907h.03125l.179688.007812h.03125l.1875.003907.007812.003906.179688.003906h.03125l.179688.003906.035156.003906.371094.007813.035156.003906.179687.003907h.03125l.164063.003906h.027344l.179687.007812h.039063l.179687.003906h.023437l.167969.003907h.03125l.179688.003906.042969.003906h.183593l.175781.003907.042969.003906.175781.003906h.035157l.167969.003906h.023437c.058594 0 .121094 0 .183594.003906h.03125l.1875.003907h.015625.175781.027344l.179687.003906h.035156l.1875.003906h.003907l.179687.003907h.039063l.179687.003906h.222656l.175782.003906h.21875l.039062.003906h.191406l.175782.003906h.445312l.179688.003907h.035156.171875.238281l.179688.003906h1.253906c141.382812 0 256-114.613281 256-256v-.804687l-.003906-.085938v-.609375l-.003906-.113281v-.492188l-.003907-.109375v-.292969l-.003906-.113281v-.207031l-.003906-.082031v-.199219l-.003907-.136719v-.25l-.003906-.054687v-.226563l-.003906-.140625v-.070312l-.003906-.128906v-.082032l-.003906-.121094v-.082031l-.003907-.117187v-.085938l-.003906-.117187v-.199219l-.003906-.089844v-.109375l-.003907-.089843v-.113282l-.003906-.085937v-.113281l-.003906-.089844-.003906-.109375v-.09375l-.003906-.109375v-.089844l-.003907-.117188-.003906-.082031v-.121093l-.003906-.082032-.003907-.113281v-.089844l-.003906-.121093-.003906-.078126-.003906-.199218v-.023438l-.003906-.175781-.003907-.070313-.003906-.128906-.003906-.085937v-.113281l-.003907-.089844-.003906-.113282-.003906-.085937v-.113281l-.003906-.09375-.003906-.105469-.003907-.097656-.003906-.101563v-.09375l-.003906-.109375-.003907-.09375-.003906-.101562-.003906-.097657-.011719-.304687v-.09375l-.003906-.109375-.003906-.09375-.003907-.097656-.003906-.101563-.003906-.09375-.003906-.109375-.003906-.085937-.003907-.109375-.003906-.09375c-.007813-.148438-.011719-.296875-.019531-.441406v-.058594l-.003906-.105469-.011719-.292969-.003907-.101562-.007812-.101563-.003906-.101562-.003906-.09375-.003907-.105469-.003906-.097656-.003906-.101563-.003907-.09375-.007812-.101562-.003906-.097657-.003906-.101562-.003907-.097656-.003906-.101563-.007813-.101562-.007812-.195313-.003906-.101562-.007813-.097656-.003906-.105469-.003906-.082031-.007813-.117188-.003906-.078125-.003906-.121094-.003906-.070312-.011719-.1875c-.007813-.160157-.015625-.316407-.023438-.476563l-.003906-.046875-.007813-.121093-.003906-.078126-.003906-.109374-.003906-.089844-.007813-.109375-.003906-.089844-.007813-.113281-.003906-.082032-.007812-.113281-.003906-.085937-.007813-.113282-.003906-.085937-.007813-.105469-.003906-.09375-.007812-.105468-.003907-.089844-.007812-.109375-.003907-.085938-.007812-.113281-.003906-.085938-.007813-.113281-.003906-.082031-.007813-.117188-.003906-.074218-.007812-.121094-.007813-.074219-.007812-.125-.003907-.070312-.007812-.125-.003906-.058594c-.011719-.164063-.019532-.324219-.03125-.484375l-.003906-.039062-.007813-.128907-.003906-.070312-.011719-.121094-.003906-.074219-.007813-.117187-.007812-.082031-.007813-.113282-.003906-.082031-.007812-.109375-.007813-.09375-.007813-.105469-.003906-.085937-.007812-.117188-.007813-.078125-.007812-.117187-.007813-.078125-.007812-.121094-.003906-.074219-.011719-.121094-.003907-.070312-.011718-.128906-.003906-.0625-.007813-.132813-.007813-.070312-.007812-.125-.007812-.070313-.007813-.125-.003906-.054687c-.023438-.292969-.046875-.589844-.074219-.882813v-.03125l-.011719-.140625-.003906-.058593-.011719-.125-.007812-.074219-.007813-.121094-.007812-.074219-.011719-.121094-.003906-.074218-.011719-.125-.003906-.070313-.011719-.121093-.007812-.074219-.011719-.125-.003907-.066407-.011718-.132812-.003906-.058594-.011719-.136718-.007813-.058594-.011718-.132813-.003907-.066406-.015625-.132813-.003906-.054687-.011719-.140625-.003906-.039062-.015625-.160157c-.027344-.308593-.054688-.617187-.085938-.925781l-.003906-.03125-.015625-.15625-.003906-.035156-.011719-.152344-.003906-.042969-.015625-.152343-.003906-.039063-.015625-.152344-.003906-.042969-.015626-.152343-.003906-.039063-.015625-.152344-.003906-.042968-.015625-.152344-.003906-.039062-.015625-.152344-.003907-.042969-.015624-.152344-.003907-.035156-.015625-.160156-.003906-.03125-.015625-.164063-.003906-.015625-.015625-.175781c-.054688-.507812-.109375-1.007812-.164063-1.511719l-.003906-.011719-.019531-.175781v-.019531l-.019532-.167969-.003906-.023437-.015625-.164063-.003906-.027343-.019531-.160157-.003906-.035156-.019532-.160156-.003906-.027344-.015625-.164063-.003906-.03125-.019531-.164062-.003907-.019531-.019531-.171875v-.019532c-.074219-.625-.148438-1.25-.226562-1.875v-.003906l-.023438-.179687-.003906-.011719-.019532-.167969-.003906-.027343-.019531-.171876-.003906-.011718-.023438-.175782v-.019531l-.023437-.171875v-.015625l-.023438-.171875-.003906-.019531-.023438-.175781v-.011719l-.023437-.179687v-.003907c-.082031-.628906-.167969-1.253906-.253906-1.882812-.015625-.125-.035157-.25-.050781-.375v-.003907l-.027344-.183593c0-.007813 0 .003906 0-.003907l-.023438-.175781-.003906-.019531-.023438-.171875-.003906-.015625-.023437-.171875-.003907-.019531c-2.832031-19.871094-8.007812-39.339844-15.421874-57.996094-1.757813-4.417969-6.042969-7.328125-10.8125-7.332031zm0 0" fill="#6b3062"/></svg>