<?xml version="1.0" encoding="iso-8859-1"?>
<!-- Generator: Adobe Illustrator 19.0.0, SVG Export Plug-In . SVG Version: 6.00 Build 0)  -->
<svg version="1.1" id="Capa_1" xmlns="http://www.w3.org/2000/svg" xmlns:xlink="http://www.w3.org/1999/xlink" x="0px" y="0px"
	 viewBox="0 0 512 512" style="enable-background:new 0 0 512 512;" xml:space="preserve">
<path style="fill:#00465F;" d="M321,369.149c0-8.284-6.716-15-15-15H206c-8.284,0-15,6.716-15,15v77c0,8.284,6.716,15,15,15h100
	c8.284,0,15-6.716,15-15V369.149z"/>
<path style="fill:#007A9F;" d="M512,42.149c0-8.284-6.716-15-15-15H15c-8.284,0-15,6.716-15,15v327c0,8.284,6.716,15,15,15h482
	c8.284,0,15-6.716,15-15V42.149z"/>
<g>
	<path style="fill:#D2D2EA;" d="M0,311.149v58c0,8.284,6.716,15,15,15h482c8.284,0,15-6.716,15-15v-58H0z"/>
	<path style="fill:#D2D2EA;" d="M416,463.487c0-17.86-14.478-32.339-32.338-32.339H127.338c-17.86,0-32.338,14.479-32.338,32.339
		v15.322c0,17.86,14.478,32.339,32.338,32.339h256.323c17.86,0,32.338-14.479,32.338-32.339L416,463.487L416,463.487z"/>
</g>
<path style="fill:#007A9F;" d="M256.5,354.149H206c-8.284,0-15,6.716-15,15v77c0,8.284,6.716,15,15,15h50.5V354.149z"/>
<path style="fill:#00BDF7;" d="M256,27.149H15c-8.284,0-15,6.716-15,15v327c0,8.284,6.716,15,15,15h241V27.149z"/>
<g>
	<path style="fill:#F5F5FD;" d="M256.5,311.149H0v58c0,8.284,6.716,15,15,15h241.5V311.149z"/>
	<path style="fill:#F5F5FD;" d="M256.5,431.149H127.338c-17.86,0-32.338,14.479-32.338,32.339v15.322
		c0,17.86,14.479,32.339,32.338,32.339H256.5V431.149z"/>
</g>
<path style="fill:#D2D2EA;" d="M412.693,13.906c-18.587-8.418-42.699-13.054-67.895-13.054c-25.196,0-49.308,4.636-67.894,13.054
	c-8.541,3.868-15.554,8.383-20.904,13.383c-5.349-5-12.363-9.515-20.904-13.383C216.51,5.487,192.398,0.851,167.202,0.851
	s-49.308,4.636-67.895,13.054C77.848,23.624,66.031,37.42,66.031,52.768l0.236,183.413c0.006,4.481,2.433,8.608,6.347,10.79
	c3.912,2.182,8.701,2.079,12.514-0.271c51.432-31.679,117.214-31.796,163.694-0.293c2.049,1.389,4.467,2.131,6.942,2.131h0.472
	c2.475,0,4.893-0.742,6.942-2.131c46.479-31.502,112.262-31.385,163.694,0.293c1.986,1.223,4.236,1.838,6.488,1.838
	c2.074,0,4.151-0.521,6.026-1.567c3.913-2.183,6.341-6.309,6.347-10.79l0.236-183.428C445.969,37.421,434.151,23.625,412.693,13.906
	z"/>
<path style="fill:#F5F5FD;" d="M235.096,13.906C216.51,5.487,192.398,0.851,167.202,0.851s-49.308,4.636-67.895,13.054
	C77.848,23.624,66.031,37.42,66.031,52.768l0.236,183.413c0.006,4.481,2.433,8.608,6.347,10.79
	c3.912,2.182,8.701,2.079,12.514-0.271c51.432-31.679,117.214-31.796,163.694-0.293c2.049,1.389,4.467,2.131,6.942,2.131H256V27.289
	C250.651,22.289,243.637,17.774,235.096,13.906z"/>
<g>
	<path style="fill:#7C8388;" d="M141.889,166.179h36.119c11.19,0,19.815-8.671,19.815-19.861v-14.654
		c0-1.719,0.004-3.431-0.428-5.095c-4.318-16.618-26.417-21.009-37.559-21.009s-33.021,4.39-37.339,21.009
		c-0.432,1.663-0.319,3.376-0.319,5.095v14.654C122.179,157.509,130.699,166.179,141.889,166.179z"/>
	<circle style="fill:#7C8388;" cx="159.81" cy="85.31" r="20.255"/>
</g>
<g>
	<path style="fill:#383838;" d="M381.92,54.278h-72.367c-8.284,0-15,6.716-15,15s6.716,15,15,15h72.367c8.284,0,15-6.716,15-15
		S390.204,54.278,381.92,54.278z"/>
	<path style="fill:#383838;" d="M381.92,100.615h-72.367c-8.284,0-15,6.716-15,15s6.716,15,15,15h72.367c8.284,0,15-6.716,15-15
		S390.204,100.615,381.92,100.615z"/>
	<path style="fill:#383838;" d="M381.92,146.952h-72.367c-8.284,0-15,6.716-15,15s6.716,15,15,15h72.367c8.284,0,15-6.716,15-15
		S390.204,146.952,381.92,146.952z"/>
</g>
<g>
</g>
<g>
</g>
<g>
</g>
<g>
</g>
<g>
</g>
<g>
</g>
<g>
</g>
<g>
</g>
<g>
</g>
<g>
</g>
<g>
</g>
<g>
</g>
<g>
</g>
<g>
</g>
<g>
</g>
</svg>
