<?xml version="1.0" encoding="iso-8859-1"?>
<!-- Generator: Adobe Illustrator 19.0.0, SVG Export Plug-In . SVG Version: 6.00 Build 0)  -->
<svg version="1.1" id="Layer_1" xmlns="http://www.w3.org/2000/svg" xmlns:xlink="http://www.w3.org/1999/xlink" x="0px" y="0px"
	 viewBox="0 0 480.004 480.004" style="enable-background:new 0 0 480.004 480.004;" xml:space="preserve">
<path style="fill:#66CEDB;" d="M192,248.002H80H40c-17.672,0-32,14.328-32,32v72h32v120h40h40v-192h72V248.002z"/>
<g>
	<circle style="fill:#F6BF58;" cx="312" cy="240.002" r="40"/>
	<path style="fill:#F6BF58;" d="M352,368.002l16-80h4.96c-5.624-4.92-12.904-8-20.96-8h-40h-40c-17.672,0-32,14.328-32,32v24h-40v32
		h72H352z"/>
</g>
<g>
	<circle style="fill:#66CEDB;" cx="80" cy="208.002" r="40"/>
	<polygon style="fill:#66CEDB;" points="372.96,288.002 368,288.002 352,368.002 272,368.002 200,368.002 152,368.002 152,472.002 
		472,472.002 472,368.002 456,368.002 472,288.002 	"/>
</g>
<rect x="312" y="72.002" style="fill:#F9ECDE;" width="160" height="96"/>
<rect x="312" y="40.002" style="fill:#66CEDB;" width="160" height="32"/>
<polygon style="fill:#F9ECDE;" points="184,136.002 224,136.002 224,8.002 64,8.002 64,136.002 144,136.002 144,176.002 "/>
<g>
	<path style="fill:#010133;" d="M472,360.002h-6.24l14.088-70.432c0.472-2.352-0.144-4.792-1.656-6.64
		c-1.528-1.848-3.792-2.928-6.192-2.928h-96.48c-6.88-5.088-15.064-8-23.52-8h-4.32c7.632-8.504,12.32-19.696,12.32-32
		c0-26.472-21.528-48-48-48s-48,21.528-48,48c0,12.304,4.688,23.496,12.32,32H272c-22.056,0-40,17.944-40,40v16h-32
		c-4.424,0-8,3.576-8,8v24h-40c-4.424,0-8,3.576-8,8v104c0,4.424,3.576,8,8,8h320c4.424,0,8-3.576,8-8v-104
		C480,363.578,476.424,360.002,472,360.002z M449.448,360.002H361.76l12.8-64h87.68L449.448,360.002z M280,240.002
		c0-17.648,14.352-32,32-32s32,14.352,32,32s-14.352,32-32,32S280,257.65,280,240.002z M208,344.002h32c4.424,0,8-3.576,8-8v-24
		c0-13.232,10.768-24,24-24h80c2.832,0,5.368,0.496,7.584,1.264l-7.072,35.368l-7.072,35.368H280v-48h-16v48h-56V344.002z
		 M464,464.002H160v-88h40h152h104h8V464.002z"/>
	<path style="fill:#010133;" d="M200,280.002v-32c0-4.424-3.576-8-8-8h-76.32c7.632-8.504,12.32-19.696,12.32-32
		c0-26.472-21.528-48-48-48s-48,21.528-48,48c0,12.304,4.688,23.496,12.32,32H40c-22.056,0-40,17.944-40,40v72c0,4.424,3.576,8,8,8
		h24v112c0,4.424,3.576,8,8,8h40h40c4.424,0,8-3.576,8-8v-184h64C196.424,288.002,200,284.426,200,280.002z M48,208.002
		c0-17.648,14.352-32,32-32s32,14.352,32,32s-14.352,32-32,32S48,225.65,48,208.002z M184,272.002h-64c-4.424,0-8,3.576-8,8v184H88
		v-104H72v104H48v-184H32v64H16v-64c0-13.232,10.768-24,24-24h144V272.002z"/>
	<rect x="408" y="320.002" style="fill:#010133;" width="16" height="16"/>
	<path style="fill:#010133;" d="M472,32.002H312c-4.424,0-8,3.576-8,8v128c0,4.424,3.576,8,8,8h160c4.424,0,8-3.576,8-8v-128
		C480,35.578,476.424,32.002,472,32.002z M464,48.002v16H320v-16H464z M320,160.002v-80h144v80H320z"/>
	<rect x="336" y="96.002" style="fill:#010133;" width="16" height="16"/>
	<rect x="368" y="96.002" style="fill:#010133;" width="16" height="16"/>
	<rect x="400" y="96.002" style="fill:#010133;" width="16" height="16"/>
	<rect x="432" y="96.002" style="fill:#010133;" width="16" height="16"/>
	<rect x="336" y="128.002" style="fill:#010133;" width="16" height="16"/>
	<rect x="368" y="128.002" style="fill:#010133;" width="16" height="16"/>
	<rect x="400" y="128.002" style="fill:#010133;" width="16" height="16"/>
	<rect x="432" y="128.002" style="fill:#010133;" width="16" height="16"/>
	<path style="fill:#010133;" d="M140.936,183.394c0.992,0.416,2.032,0.608,3.064,0.608c2.08,0,4.128-0.816,5.656-2.344
		l37.656-37.656H224c4.424,0,8-3.576,8-8v-128c0-4.424-3.576-8-8-8H64c-4.424,0-8,3.576-8,8v128c0,4.424,3.576,8,8,8h72v32
		C136,179.234,137.944,182.162,140.936,183.394z M72,128.002v-112h144v112h-32c-2.128,0-4.16,0.84-5.656,2.344L152,156.69v-20.688
		c0-4.424-3.576-8-8-8H72z"/>
	<rect x="96" y="64.002" style="fill:#010133;" width="96" height="16"/>
	<rect x="96" y="32.002" style="fill:#010133;" width="96" height="16"/>
	<rect x="96" y="96.002" style="fill:#010133;" width="96" height="16"/>
</g>
<g>
</g>
<g>
</g>
<g>
</g>
<g>
</g>
<g>
</g>
<g>
</g>
<g>
</g>
<g>
</g>
<g>
</g>
<g>
</g>
<g>
</g>
<g>
</g>
<g>
</g>
<g>
</g>
<g>
</g>
</svg>
